<?xml version="1.0" encoding="utf-8"?>
<!-- Generator: Adobe Illustrator 21.1.0, SVG Export Plug-In . SVG Version: 6.00 Build 0)  -->
<svg version="1.1" id="Calque_1" xmlns="http://www.w3.org/2000/svg" xmlns:xlink="http://www.w3.org/1999/xlink" x="0px" y="0px"
	 viewBox="0 0 141.7 141.7" style="enable-background:new 0 0 141.7 141.7;" xml:space="preserve">
<style type="text/css">
	.st0{fill:#010101;}
</style>
<path class="st0" d="M36.1,75l-0.7,0.7c0,0,0,0-0.1,0h-0.1c0,0-0.1,0-0.1,0L34.5,75c-0.4-0.4-1-0.4-1.4,0c-0.4,0.4-0.4,1,0,1.4l0,0
	l0.7,0.7c0.9,0.9,2.3,0.9,3.1,0l0.7-0.7c0.4-0.4,0.4-1,0-1.4C37.2,74.6,36.5,74.6,36.1,75L36.1,75z"/>
<path class="st0" d="M31.7,68.7h-2c-0.6,0-1,0.5-1,1s0.5,1,1,1h2c0.6,0,1-0.5,1-1S32.3,68.7,31.7,68.7z"/>
<path class="st0" d="M40.9,68.7h-2c-0.6,0-1,0.5-1,1s0.5,1,1,1h2c0.6,0,1-0.5,1-1S41.5,68.7,40.9,68.7z"/>
<path class="st0" d="M12.8,60.5h-2c-0.6,0-1,0.5-1,1c0,0.6,0.5,1,1,1h2c0.6,0,1-0.5,1-1C13.8,61,13.3,60.5,12.8,60.5z"/>
<path class="st0" d="M14.8,68.9c0.9,0.9,2.3,0.9,3.1,0l0.7-0.7c0.4-0.4,0.4-1,0-1.4c-0.4-0.4-1-0.4-1.4,0l0,0l-0.7,0.7
	c-0.1,0.1-0.2,0.1-0.3,0l-0.7-0.7c-0.4-0.4-1-0.4-1.4,0c-0.4,0.4-0.4,1,0,1.4L14.8,68.9z"/>
<path class="st0" d="M56.8,62.6h2c0.6,0,1-0.5,1-1c0-0.6-0.5-1-1-1h-2c-0.6,0-1,0.5-1,1C55.8,62.1,56.2,62.6,56.8,62.6z"/>
<path class="st0" d="M54.1,66.8l-0.7,0.7c-0.1,0.1-0.2,0.1-0.3,0l-0.7-0.7c-0.4-0.4-1-0.4-1.4,0c-0.4,0.4-0.4,1,0,1.4l0,0l0.7,0.7
	c0.9,0.9,2.3,0.9,3.1,0l0.7-0.7c0.4-0.4,0.4-1,0-1.4C55.1,66.4,54.5,66.4,54.1,66.8L54.1,66.8z"/>
<path class="st0" d="M10.3,73v0.3c0,2.3-1.9,4.2-4.2,4.2c-0.6,0-1,0.5-1,1s0.5,1,1,1c0.5,0,0.9-0.1,1.3-0.2l3.9,4.4
	c0.2,0.3,0.6,0.4,0.9,0.3l-2.1,10.1c-0.1,0.3,0,0.7,0.3,0.9l4.6,4.6c0.4,0.4,1,0.4,1.4,0c0,0,0,0,0,0l4.6-4.6
	c0.2-0.2,0.3-0.6,0.3-0.9l-2.1-10c0.3,0.1,0.7-0.1,0.9-0.3l3.7-4.1c-1.8-2.1-3-4.7-3.4-7.4c-0.2-0.2-0.3-0.5-0.5-0.8
	c-5.1,2.3-11.2,0.1-13.5-5c-0.4-0.9-0.7-1.8-0.8-2.8c2-2.7,2.3-4.9,2.2-6.2c1.7-0.2,3.4-0.6,5.1-1.2c1.2-0.4,2.3-1,3.3-1.6h0
	c0.3-0.2,0.6-0.4,0.9-0.7c0.8,1,1.8,1.9,2.9,2.6c0.3-0.6,0.7-1.2,1.2-1.7c-1.2-0.7-2.3-1.7-3-2.9c-0.3-0.5-0.9-0.7-1.4-0.4
	c-0.1,0-0.2,0.1-0.2,0.2c-0.4,0.4-0.9,0.8-1.5,1.2l0,0c-0.9,0.6-1.8,1.1-2.9,1.4c-1.8,0.6-3.8,1-5.7,1.2c-0.3,0-0.6,0.2-0.8,0.5
	c-0.2,0.3-0.2,0.6-0.1,0.9c0,0.1,0.7,1.7-0.9,4.4C4,60,3,57.2,3.9,52.6c0.9-4,2.2-4.1,3.8-4.1c0.8,0.1,1.5-0.1,2.2-0.5
	c0.2-0.1,0.5-0.4,0.9-0.6c1.4-1.1,3.7-2.8,6.6-2.8c2.2,0,4.7,1,7.3,4.1c1,1.1,1.8,2.4,2.5,3.7l0.1-0.1c0.4-0.3,0.9-0.7,1.5-1.1
	c-0.7-1.4-1.6-2.7-2.6-3.8c-7.3-8.5-14.1-3.5-16.7-1.6c-0.3,0.2-0.6,0.4-0.7,0.5c-0.4,0.1-0.8,0.2-1.2,0.1c-2.3,0-4.7,0.5-5.8,5.7
	c-1.3,6.3,0.6,9.8,1.7,11.1C4,67.4,6.5,71.1,10.3,73z M15.8,97.5L12.3,94l2.6-12.3c0-0.1,0-0.2,0-0.2l0.9-1l0.9,1c0,0.1,0,0.2,0,0.2
	L19.3,94L15.8,97.5z M22.2,78.4l-2.7,3.1l-2.3-2.6l2.8-3.1C20.5,76.9,21.3,77.8,22.2,78.4z M15.8,74.3c1,0,2.1-0.1,3.1-0.4l-3.1,3.4
	L12.8,74C13.8,74.2,14.8,74.3,15.8,74.3z M11.7,75.9l2.7,3.1l-2.3,2.6l-2.7-3C10.4,77.9,11.2,76.9,11.7,75.9z"/>
<path class="st0" d="M44.6,48.5c0.8,0.1,1.5-0.1,2.2-0.5c0.2-0.1,0.5-0.4,0.9-0.6c1.4-1.1,3.7-2.8,6.6-2.8c2.2,0,4.7,1,7.3,4.1
	c3.7,4.4,3.6,7.6,3.2,9.2c-0.2,0.8-0.6,1.5-1.1,2.1c-0.6-1.1-0.6-2.8-0.5-3.4c0-0.3-0.1-0.6-0.3-0.8c-0.2-0.2-0.5-0.3-0.8-0.3
	c-1.1,0.1-2.1,0-3.1-0.3c-1.6-0.6-3-1.8-3.9-3.3c-0.3-0.5-0.9-0.7-1.4-0.4c-0.1,0-0.2,0.1-0.2,0.2c-0.5,0.4-0.9,0.8-1.5,1.2l0,0
	c-0.9,0.6-1.8,1.1-2.9,1.4c-0.6,0.2-1.2,0.4-1.9,0.5c0.5,0.6,0.9,1.2,1.3,1.8c0.4-0.1,0.9-0.3,1.3-0.4c1.2-0.4,2.3-1,3.3-1.6h0
	c0.3-0.2,0.6-0.4,0.9-0.7c1.1,1.5,2.6,2.6,4.3,3.2c0.9,0.3,1.8,0.5,2.8,0.5c0,1.4,0.4,2.7,1.1,3.9c0.2,0.3,0.4,0.5,0.7,0.7l0.1,0.1
	c-0.1,5.7-4.8,10.2-10.4,10c-1.2,0-2.3-0.2-3.4-0.7c-0.2,2.4-1,4.6-2.3,6.6c0.8-0.6,1.5-1.4,1.9-2.3l2.7,3.1L49,81.5l-2.6-2.9
	c-0.4,0.6-0.8,1.1-1.3,1.6l3.2,3.5c0.2,0.3,0.6,0.4,0.9,0.3l-2.1,10.1c-0.1,0.3,0,0.7,0.3,0.9l4.6,4.6c0.4,0.4,1,0.4,1.4,0
	c0,0,0,0,0,0L58,95c0.2-0.2,0.3-0.6,0.3-0.9l-2.1-10c0.3,0.1,0.7-0.1,0.9-0.3l4-4.4c0.5,0.1,0.9,0.2,1.4,0.2c0.6,0,1-0.5,1-1
	s-0.5-1-1-1c-2.3,0-4.2-1.9-4.2-4.2c0,0,0,0,0,0V73c4.1-2.1,6.7-6.3,6.7-10.9v-0.4c0.9-0.9,1.5-2,1.8-3.2c0.5-2,0.7-6-3.7-11
	c-7.3-8.6-14.1-3.5-16.7-1.6c-0.3,0.2-0.6,0.4-0.7,0.5c-0.4,0.1-0.8,0.2-1.2,0.1c-1.8,0-3.6,0.3-4.8,2.8c0.7,0.2,1.3,0.5,1.9,0.8
	C42.5,48.5,43.5,48.5,44.6,48.5z M49.6,74c2,0.5,4.1,0.5,6.1,0l-3.1,3.4L49.6,74z M52.7,97.5L49.2,94l2.6-12.3c0-0.1,0-0.2,0-0.2
	l0.9-1l0.9,1c0,0.1,0,0.2,0,0.2L56.2,94L52.7,97.5z M59.1,78.4l-2.7,3.1l-2.3-2.6l2.8-3.1C57.4,76.9,58.1,77.8,59.1,78.4z"/>
<path class="st0" d="M27.8,54.5c-0.4,0.1-0.8,0.2-1.2,0.1c-2.3,0-4.7,0.5-5.8,5.7c-1.3,6.3,0.6,9.7,1.7,11.1
	c0.4,4.2,2.9,7.9,6.7,9.8v0.3c0,2.3-1.9,4.2-4.2,4.2c-0.6,0-1,0.5-1,1s0.5,1,1,1c0.5,0,0.9-0.1,1.3-0.2l3.9,4.4
	c0.2,0.3,0.6,0.4,0.9,0.3l-2.1,10c-0.1,0.3,0,0.7,0.3,0.9l4.6,4.6c0.4,0.4,1,0.4,1.4,0c0,0,0,0,0,0l4.6-4.6c0.2-0.2,0.3-0.6,0.3-0.9
	l-2.1-10c0.3,0.1,0.7-0.1,0.9-0.3l4-4.4c0.5,0.1,0.9,0.2,1.4,0.2c0.6,0,1-0.5,1-1s-0.5-1-1-1c-2.3,0-4.2-1.9-4.2-4.2c0,0,0,0,0,0
	v-0.3c4.1-2.1,6.7-6.3,6.7-10.9v-0.4c0.9-0.9,1.5-2,1.8-3.2c0.5-2,0.7-6-3.7-11c-7.3-8.5-14.1-3.5-16.7-1.6
	C28.3,54.2,28,54.4,27.8,54.5z M31.1,89.7l-2.7-3c1-0.6,1.8-1.5,2.3-2.6l2.7,3.1L31.1,89.7z M31.7,82.2c2,0.5,4.1,0.5,6.1,0
	l-3.1,3.4L31.7,82.2z M34.8,105.7l-3.5-3.5l2.6-12.3c0-0.1,0-0.2,0-0.2l0.9-1l0.9,1c0,0.1,0,0.2,0,0.2l2.6,12.3L34.8,105.7z
	 M41.2,86.6l-2.7,3.1l-2.3-2.6l2.8-3.1C39.4,85.1,40.2,86,41.2,86.6z M34.8,80.5c-5.1,0-9.4-3.7-10.1-8.7c2-2.7,2.3-4.9,2.2-6.2
	c1.7-0.2,3.4-0.6,5.1-1.2c1.2-0.4,2.3-1,3.3-1.6h0c0.3-0.2,0.6-0.4,0.9-0.7c1.1,1.5,2.6,2.6,4.3,3.2c0.9,0.3,1.8,0.5,2.8,0.5
	c0,1.4,0.4,2.7,1.1,3.9c0.2,0.3,0.4,0.5,0.7,0.7l0.1,0.1C44.9,76,40.4,80.5,34.8,80.5z M29.8,55.6c1.4-1.1,3.7-2.8,6.6-2.8
	c2.2,0,4.7,1,7.3,4.1c3.7,4.4,3.6,7.6,3.2,9.2c-0.2,0.8-0.6,1.5-1.1,2.1c-0.6-1.1-0.6-2.8-0.5-3.4c0.1-0.6-0.3-1.1-0.9-1.1
	c-0.1,0-0.1,0-0.2,0c-1.1,0.1-2.1,0-3.1-0.3c-1.6-0.6-3-1.8-3.9-3.3c-0.3-0.5-0.9-0.7-1.4-0.4c-0.1,0-0.2,0.1-0.2,0.2
	c-0.5,0.4-0.9,0.8-1.5,1.2l0,0c-0.9,0.6-1.8,1.1-2.9,1.4c-1.8,0.6-3.7,1-5.7,1.2c-0.3,0-0.6,0.2-0.8,0.5c-0.2,0.3-0.2,0.6-0.1,0.9
	c0,0.1,0.7,1.7-0.9,4.4c-0.8-1.4-1.8-4.1-0.8-8.7c0.9-4,2.2-4.1,3.8-4.1c0.8,0.1,1.5-0.1,2.2-0.5C29.2,56.1,29.4,55.9,29.8,55.6z"/>
<path class="st0" d="M99.8,50.8c0-1.4-1.1-2.5-2.5-2.5h-2.5c-1.4,0-2.5,1.1-2.5,2.5v2.5c0,1.4,1.1,2.5,2.5,2.5h2.5
	c1.4,0,2.5-1.1,2.5-2.5V50.8z M94.8,53.3v-2.5h2.5l0,2.5H94.8z"/>
<path class="st0" d="M109.7,50.8c0-1.4-1.1-2.5-2.5-2.5h-2.5c-1.4,0-2.5,1.1-2.5,2.5v2.5c0,1.4,1.1,2.5,2.5,2.5h2.5
	c1.4,0,2.5-1.1,2.5-2.5V50.8z M104.7,53.3v-2.5h2.5l0,2.5H104.7z"/>
<path class="st0" d="M99.8,60.7c0-1.4-1.1-2.5-2.5-2.5h-2.5c-1.4,0-2.5,1.1-2.5,2.5v2.5c0,1.4,1.1,2.5,2.5,2.5h2.5
	c1.4,0,2.5-1.1,2.5-2.5V60.7z M94.8,63.1v-2.5h2.5l0,2.5H94.8z"/>
<path class="st0" d="M109.7,60.7c0-1.4-1.1-2.5-2.5-2.5h-2.5c-1.4,0-2.5,1.1-2.5,2.5v2.5c0,1.4,1.1,2.5,2.5,2.5h2.5
	c1.4,0,2.5-1.1,2.5-2.5V60.7z M104.7,63.1v-2.5h2.5l0,2.5H104.7z"/>
<path class="st0" d="M99.8,70.5c0-1.4-1.1-2.5-2.5-2.5h-2.5c-1.4,0-2.5,1.1-2.5,2.5V73c0,1.4,1.1,2.5,2.5,2.5h2.5
	c1.4,0,2.5-1.1,2.5-2.5V70.5z M94.8,73v-2.5h2.5l0,2.5H94.8z"/>
<path class="st0" d="M109.7,70.5c0-1.4-1.1-2.5-2.5-2.5h-2.5c-1.4,0-2.5,1.1-2.5,2.5V73c0,1.4,1.1,2.5,2.5,2.5h2.5
	c1.4,0,2.5-1.1,2.5-2.5V70.5z M104.7,73v-2.5h2.5l0,2.5H104.7z"/>
<path class="st0" d="M107.2,77.9h-2.5c-1.4,0-2.5,1.1-2.5,2.5v2.5c0,1.4,1.1,2.5,2.5,2.5h2.5c1.4,0,2.5-1.1,2.5-2.5v-2.5
	C109.7,79,108.6,77.9,107.2,77.9z M104.7,82.9v-2.5h2.5l0,2.5H104.7z"/>
<path class="st0" d="M73.8,73.8c0-2.1-1.6-3.7-3.7-3.7c-2.1,0-3.7,1.6-3.7,3.7c0,2.1,1.6,3.7,3.7,3.7c0,0,0,0,0,0
	C72.1,77.5,73.8,75.9,73.8,73.8z M68.8,73.8c0-0.7,0.5-1.2,1.2-1.2c0.7,0,1.2,0.5,1.2,1.2s-0.5,1.2-1.2,1.2c0,0,0,0,0,0
	C69.4,75.1,68.8,74.5,68.8,73.8L68.8,73.8z"/>
<path class="st0" d="M132.1,76.3c-4.8,0-8.7,3.7-8.7,8.3c0,3.5,4.3,9.7,6.2,12.3c-6.2,2-16,3.6-28.6,3.6c-3.4,0-6.6-0.1-9.6-0.3
	c2-2.8,5.9-8.6,5.9-11.9c0-4.6-3.9-8.3-8.7-8.3S80,83.7,80,88.3c0,3.1,3.4,8.4,5.5,11.3c-12.9-1.6-20.5-5-20.5-7.6
	c0-2,4.6-4.6,12.8-6.3c0.2-1,0.6-1.9,1.1-2.7c-1.9,0.4-3.7,0.8-5.3,1.2c2.1-3,5.1-7.9,5.1-10.8c0-4.6-3.9-8.3-8.7-8.3
	s-8.7,3.7-8.7,8.3c0,3.7,4.9,10.5,6.6,12.8c-3.4,1.6-5.4,3.5-5.4,5.8c0,7.1,19.8,10.9,38.4,10.9c11.9,0,24.3-1.6,31.6-4.6
	c0.6-0.1,1.1-0.5,1.4-0.9c1.6-2.1,6.7-9.2,6.7-12.9C140.8,80,136.9,76.3,132.1,76.3z M63.9,73.5c0-3.2,2.8-5.8,6.2-5.8
	s6.2,2.6,6.2,5.8s-6.2,11.4-6.2,11.4S63.9,76.7,63.9,73.5z M82.5,88.3c0-3.2,2.8-5.8,6.2-5.8s6.2,2.6,6.2,5.8
	c0,3.2-6.2,11.4-6.2,11.4S82.5,91.5,82.5,88.3z M132.1,96L132.1,96c-0.2-0.2-6.2-8.2-6.2-11.4c0-3.2,2.8-5.8,6.2-5.8
	c3.4,0,6.2,2.6,6.2,5.8C138.3,87.7,132.4,95.6,132.1,96L132.1,96z"/>
<path class="st0" d="M132.1,81.8c-2,0-3.7,1.7-3.7,3.7c0,2,1.7,3.7,3.7,3.7c2,0,3.7-1.7,3.7-3.7C135.8,83.5,134.1,81.8,132.1,81.8z
	 M132.1,86.8c-0.7,0-1.2-0.6-1.2-1.2c0-0.7,0.6-1.2,1.2-1.2c0.7,0,1.2,0.6,1.2,1.2C133.3,86.2,132.8,86.8,132.1,86.8L132.1,86.8z"/>
<path class="st0" d="M97.3,77.9h-2.5c-0.6,0-1.1,0.2-1.5,0.6c1.1,0.5,2.1,1.1,3,1.9h1.1l0,1.1c0.8,0.9,1.4,1.9,1.8,3.1
	c0.4-0.5,0.7-1,0.7-1.7v-2.5C99.8,79,98.7,77.9,97.3,77.9z"/>
<path class="st0" d="M88.7,84.9c-2,0-3.7,1.7-3.7,3.7c0,2,1.7,3.7,3.7,3.7c2,0,3.7-1.7,3.7-3.7C92.4,86.6,90.7,84.9,88.7,84.9z
	 M88.7,89.9c-0.7,0-1.2-0.6-1.2-1.2c0-0.7,0.6-1.2,1.2-1.2c0.7,0,1.2,0.6,1.2,1.2C89.9,89.3,89.3,89.9,88.7,89.9z"/>
<path class="st0" d="M113.4,92.7c0.7,0,1.2-0.6,1.2-1.2v-7.2c2.2,0.2,4.3,0.5,6.3,0.9c0-0.8,0.1-1.6,0.3-2.4
	c-2.1-0.4-4.3-0.6-6.6-0.9v-36c0-1.4-1.1-2.5-2.5-2.5h-1.2v-2.5c0-1.4-1.1-2.5-2.5-2.5h-0.6V36c0-0.7-0.6-1.2-1.2-1.2
	c-0.7,0-1.2,0.6-1.2,1.2v2.5h-0.6c-1.4,0-2.5,1.1-2.5,2.5v2.5h-2.5v-2.5c0-1.4-1.1-2.5-2.5-2.5h-0.6V36c0-0.7-0.6-1.2-1.2-1.2
	s-1.2,0.6-1.2,1.2v2.5h-0.6c-1.4,0-2.5,1.1-2.5,2.5v2.5h-1.2c-1.4,0-2.5,1.1-2.5,2.5v31.7c0.8-0.1,1.7-0.1,2.5,0V45.9h22.3v45.6
	C112.2,92.2,112.7,92.7,113.4,92.7z M97.3,43.4h-3.7v-2.5h3.7V43.4z M108.5,43.4h-3.7v-2.5h3.7V43.4z"/>
</svg>
