<svg id="svg" version="1.1" xmlns="http://www.w3.org/2000/svg" xmlns:xlink="http://www.w3.org/1999/xlink" width="400" height="398.4" viewBox="0, 0, 400,398.4"><g id="svgg"><path id="path0" d="M168.526 0.351 C 166.663 0.486,164.691 0.855,164.143 1.169 C 163.579 1.492,161.776 1.794,159.981 1.865 C 158.240 1.934,156.635 2.170,156.415 2.389 C 156.196 2.609,154.821 2.789,153.361 2.789 C 151.308 2.789,150.475 2.970,149.692 3.586 C 149.135 4.024,148.315 4.382,147.869 4.382 C 147.424 4.382,146.948 4.562,146.813 4.781 C 146.677 5.000,145.574 5.179,144.361 5.179 C 142.492 5.179,142.125 5.300,141.948 5.976 C 141.772 6.648,141.405 6.773,139.598 6.773 C 137.888 6.773,137.357 6.933,136.959 7.570 C 136.590 8.161,136.030 8.367,134.788 8.367 C 133.868 8.367,133.004 8.546,132.869 8.765 C 132.733 8.984,132.133 9.163,131.535 9.163 C 130.937 9.163,129.744 9.522,128.884 9.960 C 128.025 10.398,127.123 10.757,126.881 10.757 C 126.639 10.757,125.389 11.295,124.104 11.952 C 122.818 12.610,121.373 13.147,120.892 13.147 C 119.961 13.147,118.955 14.041,119.393 14.479 C 119.537 14.623,118.909 14.741,117.998 14.741 C 116.773 14.741,116.212 14.949,115.844 15.538 C 115.570 15.976,114.952 16.335,114.470 16.335 C 113.987 16.335,113.496 16.491,113.378 16.682 C 113.260 16.872,112.644 17.133,112.009 17.260 C 111.373 17.387,110.607 17.731,110.307 18.025 C 110.007 18.318,108.909 18.955,107.869 19.441 C 106.828 19.926,105.976 20.501,105.976 20.719 C 105.976 20.937,105.642 21.116,105.233 21.116 C 104.824 21.116,104.034 21.474,103.477 21.912 C 102.920 22.351,102.117 22.709,101.692 22.709 C 101.268 22.709,100.596 23.068,100.199 23.506 C 99.803 23.944,99.318 24.303,99.122 24.303 C 98.925 24.303,97.338 25.275,95.594 26.462 C 93.850 27.650,91.887 28.859,91.231 29.149 C 90.576 29.439,90.040 29.879,90.040 30.127 C 90.040 30.375,89.502 30.685,88.845 30.817 C 88.144 30.957,87.649 31.307,87.649 31.663 C 87.649 31.998,87.336 32.274,86.952 32.277 C 86.268 32.284,84.730 33.432,82.183 35.839 C 81.477 36.506,80.657 37.052,80.362 37.052 C 80.067 37.052,79.457 37.475,79.008 37.992 C 78.558 38.509,77.630 39.180,76.944 39.483 C 76.258 39.787,75.697 40.260,75.697 40.536 C 75.697 40.811,75.526 41.036,75.317 41.036 C 75.108 41.036,74.488 41.484,73.941 42.032 C 73.393 42.580,72.791 43.028,72.603 43.028 C 72.415 43.028,71.864 43.566,71.378 44.223 C 70.892 44.880,70.302 45.418,70.068 45.418 C 69.507 45.418,66.932 48.002,66.932 48.566 C 66.932 48.807,66.748 49.004,66.523 49.004 C 66.298 49.004,65.308 49.811,64.322 50.797 C 63.336 51.783,62.265 52.590,61.942 52.590 C 61.619 52.590,61.355 52.928,61.355 53.342 C 61.355 53.814,61.095 54.074,60.658 54.039 C 60.216 54.004,59.914 54.313,59.833 54.880 C 59.763 55.374,59.441 55.777,59.117 55.777 C 58.317 55.777,54.980 59.116,54.980 59.916 C 54.980 60.292,54.650 60.558,54.183 60.558 C 53.669 60.558,53.386 60.823,53.386 61.308 C 53.386 61.723,53.031 62.152,52.590 62.267 C 52.151 62.381,51.793 62.761,51.793 63.110 C 51.793 63.459,51.614 63.745,51.394 63.745 C 51.175 63.745,50.996 64.104,50.996 64.542 C 50.996 64.994,50.730 65.339,50.383 65.339 C 49.722 65.339,46.614 68.309,46.614 68.940 C 46.614 69.151,46.345 69.323,46.016 69.323 C 45.687 69.323,45.418 69.552,45.418 69.832 C 45.418 70.112,45.105 70.629,44.721 70.982 C 43.788 71.839,42.629 73.393,42.629 73.786 C 42.629 73.961,42.361 74.104,42.032 74.104 C 41.703 74.104,41.434 74.255,41.434 74.441 C 41.434 74.627,41.121 75.156,40.737 75.617 C 39.263 77.391,38.645 78.261,38.645 78.567 C 38.645 78.742,38.396 78.884,38.091 78.884 C 37.786 78.884,37.422 79.340,37.282 79.897 C 37.051 80.818,36.071 82.148,34.150 84.148 C 33.759 84.554,33.075 85.586,32.630 86.440 C 32.185 87.295,31.563 88.207,31.249 88.468 C 30.934 88.729,30.677 89.189,30.677 89.491 C 30.677 89.793,30.404 90.040,30.070 90.040 C 29.713 90.040,29.363 90.534,29.223 91.235 C 29.092 91.892,28.872 92.430,28.734 92.430 C 28.597 92.430,28.057 93.237,27.534 94.223 C 27.010 95.209,26.432 96.016,26.249 96.016 C 25.811 96.016,24.303 99.151,24.303 100.061 C 24.303 100.450,23.944 100.961,23.506 101.195 C 23.068 101.430,22.709 102.020,22.709 102.508 C 22.709 102.995,22.351 103.618,21.912 103.892 C 21.474 104.165,21.116 104.746,21.116 105.183 C 21.116 105.619,20.940 105.976,20.726 105.976 C 20.355 105.976,18.725 108.958,18.725 109.637 C 18.725 109.815,18.367 110.319,17.928 110.757 C 17.490 111.195,17.131 111.991,17.131 112.526 C 17.131 113.061,16.952 113.610,16.733 113.745 C 16.514 113.880,16.335 114.475,16.335 115.067 C 16.335 115.712,16.015 116.343,15.538 116.641 C 14.997 116.979,14.741 117.570,14.741 118.483 C 14.741 119.492,14.542 119.879,13.944 120.036 C 13.351 120.191,13.145 120.585,13.136 121.576 C 13.129 122.424,12.695 123.477,11.941 124.473 C 11.165 125.500,10.757 126.507,10.757 127.399 C 10.757 128.156,10.404 129.208,9.960 129.772 C 9.522 130.329,9.163 131.377,9.163 132.102 C 9.163 132.826,8.984 133.530,8.765 133.665 C 8.546 133.801,8.367 134.687,8.367 135.634 C 8.367 137.022,8.212 137.398,7.570 137.566 C 6.901 137.741,6.773 138.109,6.773 139.859 C 6.773 141.345,6.582 142.083,6.109 142.430 C 5.325 143.003,4.425 146.152,4.400 148.410 C 4.387 149.563,4.161 150.146,3.586 150.505 C 2.904 150.931,2.789 151.434,2.789 153.993 C 2.789 155.637,2.618 157.294,2.409 157.675 C 2.200 158.055,1.846 160.056,1.623 162.121 C 1.383 164.340,1.009 166.005,0.708 166.190 C -0.020 166.640,-0.042 233.451,0.685 234.328 C 0.953 234.650,1.385 236.650,1.646 238.772 C 1.906 240.893,2.270 242.629,2.454 242.629 C 2.638 242.629,2.789 244.057,2.789 245.801 C 2.789 248.403,2.925 249.101,3.546 249.686 C 4.042 250.152,4.376 251.157,4.512 252.590 C 4.855 256.218,5.225 257.457,6.029 257.667 C 6.638 257.827,6.773 258.247,6.773 259.993 C 6.773 261.716,6.925 262.205,7.570 262.550 C 8.181 262.877,8.367 263.384,8.367 264.732 C 8.367 265.697,8.546 266.598,8.765 266.733 C 8.984 266.868,9.166 267.462,9.169 268.051 C 9.177 269.735,9.605 270.916,10.206 270.916 C 10.579 270.916,10.757 271.408,10.757 272.439 C 10.757 273.511,11.107 274.425,11.941 275.527 C 12.672 276.493,13.129 277.582,13.136 278.372 C 13.144 279.238,13.406 279.792,13.944 280.080 C 14.444 280.347,14.741 280.914,14.741 281.599 C 14.741 282.236,15.074 282.933,15.538 283.267 C 16.006 283.604,16.335 284.298,16.335 284.949 C 16.335 285.558,16.491 286.056,16.682 286.056 C 16.873 286.056,17.143 286.764,17.281 287.631 C 17.420 288.497,17.757 289.348,18.030 289.523 C 18.552 289.857,19.742 291.884,21.084 294.721 C 21.524 295.652,22.070 296.414,22.297 296.414 C 22.524 296.414,22.709 296.879,22.709 297.448 C 22.709 298.146,22.968 298.549,23.506 298.689 C 23.944 298.804,24.303 299.202,24.303 299.573 C 24.303 300.407,25.807 303.584,26.205 303.590 C 26.364 303.593,26.837 304.310,27.255 305.184 C 27.674 306.058,28.257 306.773,28.550 306.773 C 28.859 306.773,29.084 307.208,29.084 307.806 C 29.084 308.485,29.342 308.907,29.838 309.037 C 30.277 309.152,30.689 309.718,30.824 310.394 C 30.951 311.032,31.287 311.554,31.569 311.554 C 31.852 311.554,32.413 312.316,32.816 313.247 C 33.220 314.178,34.308 315.657,35.234 316.534 C 36.161 317.410,37.042 318.621,37.192 319.223 C 37.342 319.826,37.731 320.319,38.055 320.319 C 38.380 320.319,38.645 320.582,38.645 320.903 C 38.645 321.224,39.273 322.115,40.040 322.882 C 40.807 323.649,41.434 324.461,41.434 324.688 C 41.434 324.914,41.691 325.100,42.005 325.100 C 42.319 325.100,42.690 325.458,42.829 325.896 C 42.968 326.335,43.249 326.693,43.453 326.693 C 43.657 326.693,43.825 327.052,43.825 327.490 C 43.825 327.940,44.090 328.287,44.435 328.287 C 44.770 328.287,45.165 328.601,45.312 328.984 C 45.460 329.368,46.440 330.541,47.491 331.593 C 48.542 332.644,49.402 333.680,49.402 333.896 C 49.402 334.112,49.716 334.407,50.100 334.552 C 51.097 334.929,51.793 335.700,51.793 336.426 C 51.793 336.786,52.131 337.052,52.590 337.052 C 53.084 337.052,53.386 337.317,53.386 337.751 C 53.386 338.145,53.908 338.682,54.582 338.980 C 55.310 339.302,55.777 339.807,55.777 340.272 C 55.777 340.770,56.054 341.036,56.574 341.036 C 57.105 341.036,57.371 341.301,57.371 341.833 C 57.371 342.327,57.636 342.629,58.070 342.629 C 58.464 342.629,59.001 343.151,59.299 343.825 C 59.590 344.482,60.066 345.020,60.358 345.020 C 60.991 345.020,63.745 347.616,63.745 348.213 C 63.745 348.443,64.058 348.751,64.441 348.898 C 64.824 349.045,65.549 349.577,66.053 350.080 C 66.556 350.584,67.140 350.996,67.349 350.996 C 67.558 350.996,67.729 351.265,67.729 351.594 C 67.729 351.922,68.045 352.191,68.431 352.191 C 68.818 352.191,69.470 352.639,69.882 353.187 C 70.293 353.735,70.873 354.183,71.171 354.183 C 71.469 354.183,71.713 354.452,71.713 354.781 C 71.713 355.110,71.976 355.378,72.297 355.378 C 72.618 355.378,73.071 355.735,73.304 356.171 C 73.537 356.606,74.171 357.074,74.713 357.210 C 75.254 357.346,75.697 357.666,75.697 357.921 C 75.697 358.176,76.369 358.739,77.189 359.172 C 78.010 359.606,79.170 360.453,79.766 361.056 C 80.362 361.658,81.093 362.151,81.391 362.151 C 81.689 362.151,82.367 362.617,82.899 363.185 C 84.068 364.437,88.896 367.729,89.562 367.729 C 89.825 367.729,90.040 367.998,90.040 368.327 C 90.040 368.659,90.394 368.924,90.837 368.924 C 91.275 368.924,91.633 369.100,91.633 369.315 C 91.633 369.530,92.126 369.828,92.729 369.977 C 93.332 370.126,94.059 370.578,94.345 370.981 C 94.632 371.384,95.132 371.713,95.458 371.713 C 95.783 371.713,96.403 372.043,96.836 372.446 C 97.269 372.849,98.113 373.426,98.712 373.727 C 99.311 374.028,100.277 374.594,100.858 374.986 C 101.440 375.377,102.292 375.697,102.751 375.697 C 103.210 375.697,103.586 375.872,103.586 376.086 C 103.586 376.554,106.649 378.088,107.583 378.088 C 107.946 378.088,108.568 378.446,108.964 378.884 C 109.361 379.323,109.904 379.681,110.172 379.681 C 110.440 379.681,110.886 379.955,111.163 380.289 C 111.441 380.622,111.756 380.807,111.864 380.699 C 111.973 380.590,112.558 380.855,113.164 381.287 C 113.770 381.718,114.704 382.072,115.239 382.072 C 115.774 382.072,116.536 382.430,116.932 382.869 C 117.329 383.307,118.074 383.665,118.588 383.665 C 119.101 383.665,119.880 384.024,120.319 384.462 C 120.757 384.900,121.559 385.259,122.102 385.259 C 122.644 385.259,123.675 385.617,124.393 386.054 C 125.110 386.492,126.013 386.850,126.400 386.851 C 127.139 386.853,128.421 387.478,129.566 388.394 C 129.941 388.694,130.754 388.865,131.372 388.775 C 132.091 388.669,132.769 388.868,133.251 389.325 C 133.782 389.829,134.630 390.040,136.125 390.040 C 137.673 390.040,138.247 390.190,138.247 390.595 C 138.247 391.332,139.130 391.633,141.291 391.633 C 142.498 391.633,142.986 391.777,142.801 392.076 C 142.351 392.805,143.482 393.214,146.016 393.237 C 147.878 393.254,148.891 393.519,150.598 394.438 C 152.388 395.402,153.266 395.617,155.398 395.617 C 156.834 395.617,158.178 395.787,158.386 395.993 C 158.595 396.200,160.012 396.408,161.536 396.457 C 164.223 396.543,165.702 396.858,167.690 397.769 C 168.360 398.076,178.143 398.207,200.398 398.207 C 232.879 398.207,232.176 398.235,235.060 396.826 C 235.388 396.666,237.078 396.497,238.814 396.452 C 240.550 396.406,242.286 396.200,242.672 395.993 C 243.058 395.787,244.417 395.615,245.691 395.612 C 247.001 395.608,248.441 395.351,249.004 395.020 C 249.552 394.698,250.314 394.322,250.697 394.183 C 251.081 394.044,251.394 393.773,251.394 393.579 C 251.394 393.385,252.648 393.227,254.180 393.227 C 256.534 393.227,257.042 393.104,257.463 392.430 C 257.829 391.844,258.392 391.633,259.596 391.633 C 260.725 391.633,261.454 391.387,261.952 390.837 C 262.481 390.252,263.179 390.040,264.570 390.040 C 265.614 390.040,266.531 389.849,266.609 389.616 C 266.687 389.382,267.506 389.090,268.429 388.966 C 269.352 388.843,270.312 388.496,270.561 388.195 C 270.810 387.895,271.340 387.649,271.738 387.649 C 272.137 387.649,272.574 387.470,272.709 387.251 C 272.845 387.032,273.369 386.853,273.874 386.853 C 274.379 386.853,275.249 386.494,275.806 386.056 C 276.363 385.618,277.259 385.259,277.798 385.259 C 278.336 385.259,279.233 384.900,279.790 384.462 C 280.347 384.024,281.144 383.665,281.561 383.665 C 281.979 383.665,282.705 383.307,283.175 382.869 C 283.646 382.430,284.368 382.072,284.781 382.072 C 285.194 382.072,286.322 381.626,287.288 381.081 C 288.254 380.536,289.313 379.971,289.641 379.826 C 289.970 379.681,290.598 379.262,291.036 378.895 C 291.474 378.528,292.590 377.989,293.516 377.699 C 294.441 377.408,295.554 376.839,295.989 376.434 C 296.424 376.029,297.124 375.697,297.544 375.697 C 297.965 375.697,298.539 375.419,298.821 375.080 C 299.103 374.740,300.090 374.118,301.014 373.697 C 301.939 373.276,302.800 372.657,302.929 372.322 C 303.057 371.987,303.504 371.713,303.923 371.713 C 304.341 371.713,304.918 371.430,305.205 371.084 C 305.492 370.739,306.615 369.977,307.700 369.391 C 311.227 367.488,312.676 366.521,314.260 365.013 C 314.793 364.505,315.658 363.927,316.181 363.728 C 316.704 363.529,317.131 363.135,317.131 362.853 C 317.131 362.570,317.804 362.046,318.625 361.688 C 319.943 361.113,320.529 360.712,322.593 358.972 C 322.857 358.748,323.254 358.566,323.475 358.566 C 323.696 358.566,324.068 358.207,324.303 357.769 C 324.537 357.331,324.992 356.972,325.313 356.972 C 325.634 356.972,325.896 356.715,325.896 356.401 C 325.896 356.087,326.210 355.725,326.594 355.596 C 326.977 355.467,328.215 354.514,329.344 353.478 C 330.473 352.441,331.773 351.330,332.232 351.008 C 332.692 350.685,333.068 350.204,333.068 349.939 C 333.068 349.673,333.426 349.342,333.865 349.203 C 334.303 349.064,334.661 348.609,334.661 348.193 C 334.661 347.727,334.865 347.513,335.191 347.639 C 335.482 347.750,336.062 347.386,336.481 346.829 C 336.899 346.272,337.557 345.817,337.943 345.817 C 338.387 345.817,338.645 345.514,338.645 344.996 C 338.645 344.531,338.824 344.287,339.059 344.432 C 339.494 344.701,342.629 341.719,342.629 341.035 C 342.629 340.817,342.830 340.637,343.075 340.637 C 343.736 340.637,346.614 337.546,346.614 336.835 C 346.614 336.474,346.896 336.268,347.296 336.337 C 347.696 336.406,348.040 336.155,348.127 335.733 C 348.208 335.336,349.425 333.873,350.831 332.481 C 352.236 331.089,353.386 329.755,353.386 329.517 C 353.386 329.279,353.655 329.084,353.984 329.084 C 354.313 329.084,354.582 328.932,354.582 328.746 C 354.582 328.561,354.895 328.031,355.279 327.570 C 356.753 325.797,357.371 324.926,357.371 324.620 C 357.371 324.446,357.639 324.303,357.968 324.303 C 358.297 324.303,358.566 324.156,358.566 323.977 C 358.566 323.797,359.193 322.946,359.960 322.084 C 360.727 321.223,361.354 320.294,361.354 320.020 C 361.354 319.746,361.602 319.522,361.904 319.522 C 362.206 319.522,362.693 318.939,362.987 318.227 C 363.281 317.515,364.170 316.215,364.963 315.339 C 365.756 314.462,366.748 313.123,367.167 312.363 C 367.586 311.602,368.242 310.627,368.625 310.196 C 369.009 309.764,369.323 309.176,369.323 308.889 C 369.323 308.602,369.588 308.367,369.913 308.367 C 370.237 308.367,370.626 307.874,370.776 307.271 C 370.926 306.668,371.332 305.966,371.679 305.710 C 372.026 305.454,372.189 305.124,372.042 304.977 C 371.895 304.830,372.313 304.145,372.972 303.456 C 373.631 302.767,374.711 301.080,375.374 299.707 C 376.036 298.334,376.738 297.211,376.934 297.211 C 377.130 297.211,377.291 296.694,377.291 296.062 C 377.291 295.249,377.523 294.853,378.088 294.705 C 378.589 294.574,378.884 294.162,378.884 293.595 C 378.884 293.098,379.153 292.395,379.481 292.033 C 380.473 290.937,381.983 287.708,381.399 287.933 C 381.037 288.071,380.876 287.753,380.876 286.895 C 380.876 285.688,382.183 285.017,382.537 286.043 C 382.610 286.255,382.877 285.986,383.130 285.445 C 383.404 284.859,383.427 284.563,383.185 284.712 C 382.962 284.850,382.623 284.716,382.432 284.414 C 381.870 283.527,382.018 281.669,382.669 281.419 C 382.998 281.293,383.270 280.805,383.273 280.336 C 383.284 278.816,383.879 278.274,384.982 278.777 C 386.317 279.385,386.853 278.765,386.853 276.614 C 386.853 275.671,386.999 274.900,387.177 274.900 C 388.419 274.900,389.559 270.605,388.828 268.682 C 388.258 267.182,388.708 265.339,389.644 265.339 C 390.049 265.339,390.438 265.605,390.509 265.931 C 390.597 266.339,390.776 266.225,391.082 265.566 C 391.437 264.801,391.421 264.649,391.000 264.810 C 390.365 265.054,389.855 263.363,390.217 262.220 C 390.355 261.787,390.951 261.312,391.543 261.164 C 392.484 260.928,392.532 260.845,391.927 260.507 C 391.080 260.033,390.911 256.210,391.733 256.122 C 392.007 256.092,392.769 256.047,393.426 256.022 C 394.588 255.977,394.625 255.915,394.744 253.785 C 394.811 252.580,395.035 251.423,395.242 251.215 C 395.449 251.007,395.618 250.435,395.618 249.944 C 395.618 249.453,395.820 248.926,396.067 248.773 C 396.374 248.583,396.311 248.380,395.868 248.132 C 394.934 247.610,394.921 242.032,395.853 241.675 C 396.201 241.541,396.680 241.551,396.916 241.698 C 397.203 241.874,397.244 241.708,397.039 241.201 C 396.580 240.065,396.284 236.031,396.574 234.875 C 396.818 233.905,398.008 233.417,398.008 234.286 C 398.008 234.519,398.187 234.598,398.406 234.462 C 398.923 234.143,398.923 232.391,398.406 232.072 C 397.598 231.572,397.919 225.845,398.768 225.623 C 399.928 225.320,399.989 224.611,399.995 211.355 L 400.001 199.004 390.601 199.136 C 381.231 199.268,381.201 199.266,381.464 198.439 L 381.727 197.610 359.290 197.552 C 332.412 197.482,334.290 197.403,333.167 198.650 C 332.401 199.502,332.271 200.091,332.274 202.711 C 332.279 208.749,331.421 218.077,330.765 219.116 C 330.343 219.783,330.081 221.430,329.959 224.178 C 329.841 226.817,329.625 228.223,329.343 228.170 C 329.077 228.119,328.786 229.396,328.591 231.474 C 328.416 233.337,328.097 234.920,327.881 234.993 C 327.666 235.066,327.490 236.091,327.490 237.270 C 327.490 239.006,327.339 239.495,326.693 239.841 C 326.079 240.169,325.896 240.675,325.896 242.046 C 325.896 243.215,325.724 243.825,325.392 243.825 C 324.845 243.825,323.506 247.189,323.506 248.563 C 323.506 249.029,323.147 249.717,322.709 250.092 C 322.266 250.472,321.912 251.268,321.912 251.887 C 321.912 252.498,321.756 253.310,321.564 253.691 C 319.964 256.867,319.522 257.973,319.522 258.803 C 319.522 259.474,319.298 259.761,318.775 259.761 C 318.278 259.761,317.954 260.129,317.808 260.860 C 317.687 261.465,317.127 262.496,316.563 263.151 C 316.000 263.806,315.539 264.746,315.538 265.239 C 315.538 265.739,315.293 266.135,314.983 266.135 C 314.371 266.135,313.944 266.974,313.944 268.177 C 313.944 268.968,313.516 269.640,312.251 270.834 C 311.868 271.196,311.554 271.612,311.554 271.760 C 311.554 271.907,311.016 272.603,310.359 273.307 C 309.701 274.010,309.163 274.808,309.163 275.080 C 309.163 275.352,308.805 275.898,308.367 276.295 C 307.928 276.691,307.570 277.257,307.570 277.552 C 307.570 277.847,307.296 278.088,306.962 278.088 C 306.606 278.088,306.256 278.582,306.116 279.283 C 305.984 279.940,305.720 280.478,305.528 280.478 C 305.336 280.478,305.179 280.837,305.179 281.275 C 305.179 281.806,304.914 282.072,304.382 282.072 C 303.851 282.072,303.586 282.337,303.586 282.869 C 303.586 283.318,303.320 283.665,302.976 283.665 C 302.640 283.665,302.246 283.979,302.099 284.363 C 301.953 284.746,300.973 285.861,299.921 286.840 C 298.869 287.819,298.008 288.940,298.008 289.330 C 298.008 289.720,297.749 290.040,297.433 290.040 C 297.117 290.040,296.540 290.578,296.152 291.235 C 295.763 291.892,295.210 292.430,294.922 292.430 C 294.633 292.430,294.278 292.744,294.133 293.127 C 293.798 294.013,293.216 294.595,292.331 294.930 C 291.947 295.075,291.633 295.469,291.633 295.804 C 291.633 296.149,291.287 296.414,290.837 296.414 C 290.305 296.414,290.040 296.680,290.040 297.211 C 290.040 297.649,289.783 298.008,289.469 298.008 C 289.155 298.008,288.002 298.880,286.908 299.946 C 285.813 301.013,284.636 301.993,284.291 302.125 C 283.947 302.257,283.665 302.640,283.665 302.976 C 283.665 303.311,283.430 303.586,283.143 303.586 C 282.855 303.586,282.235 303.944,281.765 304.382 C 281.295 304.821,280.757 305.179,280.569 305.179 C 280.382 305.179,279.713 305.717,279.084 306.375 C 278.454 307.032,277.624 307.570,277.239 307.570 C 276.854 307.570,276.274 307.948,275.951 308.410 C 275.627 308.872,275.169 309.130,274.932 308.984 C 274.694 308.837,274.502 308.996,274.502 309.339 C 274.502 309.681,274.252 309.960,273.947 309.960 C 273.642 309.960,273.304 310.189,273.197 310.469 C 273.089 310.749,272.039 311.482,270.863 312.097 C 269.687 312.713,268.008 313.635,267.131 314.146 C 266.255 314.656,264.971 315.370,264.279 315.733 C 263.587 316.095,262.708 316.737,262.325 317.160 C 261.943 317.582,261.275 317.928,260.842 317.928 C 260.408 317.928,259.764 318.255,259.409 318.654 C 259.055 319.053,257.869 319.610,256.773 319.891 C 255.677 320.173,254.467 320.486,254.084 320.587 C 253.700 320.688,253.386 321.028,253.386 321.342 C 253.386 321.724,252.944 321.912,252.046 321.912 C 251.308 321.912,250.250 322.270,249.694 322.707 C 249.139 323.145,247.744 323.743,246.595 324.037 C 245.446 324.331,244.289 324.869,244.022 325.234 C 243.713 325.656,242.972 325.896,241.977 325.896 C 241.119 325.896,240.009 326.182,239.510 326.531 C 238.526 327.220,235.806 327.766,230.987 328.239 C 229.017 328.433,227.644 328.783,227.171 329.211 C 226.638 329.693,225.708 329.880,223.847 329.880 C 222.425 329.880,220.198 330.077,218.898 330.318 C 217.598 330.558,214.651 330.874,212.351 331.019 C 209.342 331.208,208.195 331.421,208.267 331.777 C 208.344 332.158,206.528 332.260,200.299 332.225 C 195.862 332.199,192.547 332.096,192.933 331.995 C 194.430 331.605,193.055 331.075,190.514 331.063 C 189.048 331.056,185.966 330.793,183.665 330.478 C 181.365 330.163,178.420 329.900,177.123 329.893 C 175.487 329.884,174.537 329.675,174.024 329.211 C 173.529 328.763,172.267 328.465,170.208 328.309 C 168.516 328.181,166.939 327.954,166.704 327.804 C 166.470 327.654,165.483 327.490,164.513 327.440 C 163.543 327.390,162.321 327.022,161.799 326.623 C 161.217 326.178,160.180 325.896,159.124 325.896 C 157.860 325.896,157.294 325.701,157.009 325.168 C 156.770 324.721,155.778 324.251,154.443 323.953 C 153.246 323.685,151.864 323.116,151.371 322.689 C 150.879 322.262,149.964 321.912,149.338 321.912 C 148.692 321.912,147.904 321.567,147.517 321.116 C 147.097 320.625,146.342 320.319,145.553 320.319 C 144.847 320.319,144.159 320.139,144.024 319.920 C 143.888 319.701,143.342 319.522,142.809 319.522 C 142.271 319.522,141.618 319.167,141.342 318.725 C 141.048 318.255,140.413 317.928,139.791 317.928 C 139.102 317.928,138.672 317.674,138.546 317.191 C 138.424 316.728,137.676 316.254,136.533 315.916 C 135.415 315.586,134.640 315.102,134.525 314.662 C 134.420 314.259,133.972 313.944,133.503 313.944 C 133.045 313.944,132.311 313.586,131.873 313.147 C 131.434 312.709,130.672 312.349,130.179 312.347 C 129.662 312.345,128.885 311.839,128.342 311.152 C 127.824 310.496,127.146 309.960,126.835 309.960 C 126.524 309.960,126.164 309.685,126.035 309.348 C 125.906 309.011,125.164 308.469,124.386 308.145 C 123.608 307.820,122.724 307.199,122.420 306.765 C 122.116 306.331,121.631 305.976,121.343 305.976 C 121.054 305.976,120.033 305.259,119.074 304.382 C 118.116 303.506,117.182 302.789,117.001 302.789 C 116.819 302.789,115.939 302.072,115.045 301.195 C 114.151 300.319,113.283 299.602,113.117 299.602 C 112.951 299.602,111.087 297.898,108.974 295.817 C 106.862 293.735,104.965 292.032,104.758 292.032 C 104.552 292.032,104.382 291.863,104.382 291.656 C 104.382 291.449,103.845 290.962,103.187 290.574 C 102.530 290.186,101.992 289.623,101.992 289.324 C 101.992 289.025,100.404 287.192,98.464 285.252 C 96.523 283.311,94.632 281.084,94.262 280.304 C 93.891 279.523,93.328 278.884,93.009 278.884 C 92.691 278.884,92.430 278.590,92.430 278.230 C 92.430 277.871,91.892 277.062,91.235 276.434 C 90.578 275.806,90.040 275.026,90.040 274.701 C 90.040 274.376,89.681 273.886,89.243 273.613 C 88.805 273.339,88.446 272.908,88.446 272.655 C 88.446 272.403,87.908 271.620,87.251 270.916 C 86.594 270.213,86.056 269.312,86.056 268.915 C 86.056 267.767,85.619 266.932,85.017 266.932 C 84.712 266.932,84.462 266.574,84.462 266.135 C 84.462 265.697,84.304 265.339,84.110 265.339 C 83.917 265.339,83.665 264.980,83.550 264.542 C 83.435 264.104,83.056 263.745,82.707 263.745 C 82.301 263.745,82.072 263.398,82.072 262.782 C 82.072 261.406,81.675 260.558,81.033 260.558 C 80.704 260.558,80.478 260.145,80.478 259.545 C 80.478 258.988,80.120 258.148,79.681 257.677 C 79.243 257.207,78.884 256.508,78.884 256.124 C 78.884 255.740,78.705 255.315,78.486 255.179 C 78.267 255.044,78.088 254.325,78.088 253.582 C 78.088 252.839,77.849 252.087,77.557 251.912 C 76.892 251.512,75.697 249.115,75.697 248.179 C 75.697 247.049,75.256 246.215,74.659 246.215 C 74.265 246.215,74.104 245.684,74.104 244.385 C 74.104 242.890,73.958 242.517,73.307 242.347 C 72.639 242.172,72.510 241.803,72.510 240.073 C 72.510 238.937,72.314 237.812,72.074 237.572 C 71.835 237.333,71.517 235.818,71.367 234.206 C 71.205 232.452,70.922 231.307,70.665 231.355 C 70.399 231.405,70.133 230.114,69.969 227.985 C 69.823 226.087,69.465 224.169,69.173 223.722 C 67.892 221.758,67.265 209.274,67.570 191.833 C 67.760 181.007,68.005 178.637,69.158 176.443 C 69.461 175.867,69.831 173.805,69.979 171.861 C 70.131 169.869,70.462 168.153,70.738 167.928 C 71.006 167.709,71.318 166.281,71.431 164.754 C 71.543 163.227,71.832 161.913,72.073 161.832 C 72.318 161.751,72.510 160.745,72.510 159.543 C 72.510 157.806,72.661 157.317,73.307 156.972 C 73.916 156.646,74.104 156.138,74.104 154.813 C 74.104 153.416,74.258 153.041,74.900 152.873 C 75.469 152.724,75.697 152.329,75.697 151.493 C 75.697 150.190,76.594 148.154,77.498 147.403 C 77.822 147.134,78.088 146.309,78.088 145.569 C 78.088 144.829,78.245 144.223,78.436 144.223 C 78.628 144.223,78.888 143.707,79.014 143.076 C 79.140 142.445,79.521 141.651,79.861 141.312 C 80.200 140.972,80.478 140.276,80.478 139.766 C 80.478 139.255,80.837 138.613,81.275 138.339 C 81.783 138.022,82.072 137.410,82.072 136.650 C 82.072 135.881,82.274 135.458,82.642 135.458 C 82.956 135.458,83.327 135.100,83.466 134.661 C 83.605 134.223,83.886 133.865,84.091 133.865 C 84.295 133.865,84.462 133.423,84.462 132.883 C 84.462 132.308,84.793 131.723,85.259 131.474 C 85.725 131.225,86.056 130.640,86.056 130.066 C 86.056 129.526,86.235 129.084,86.454 129.084 C 86.673 129.084,86.853 128.765,86.853 128.375 C 86.853 127.985,87.211 127.408,87.649 127.092 C 88.088 126.776,88.446 126.198,88.446 125.808 C 88.446 125.365,88.745 125.100,89.243 125.100 C 89.786 125.100,90.040 124.834,90.040 124.267 C 90.040 123.475,91.167 121.989,93.127 120.197 C 93.621 119.747,94.024 119.052,94.024 118.653 C 94.024 118.255,94.203 117.928,94.422 117.928 C 94.641 117.928,94.821 117.570,94.821 117.131 C 94.821 116.668,95.086 116.335,95.456 116.335 C 95.805 116.335,96.184 115.976,96.299 115.538 C 96.414 115.100,96.761 114.741,97.071 114.741 C 97.381 114.741,97.754 114.427,97.901 114.044 C 98.047 113.660,99.027 112.546,100.079 111.566 C 101.131 110.587,101.992 109.553,101.992 109.268 C 101.992 108.680,104.434 106.194,105.362 105.838 C 105.700 105.709,105.976 105.415,105.976 105.185 C 105.976 104.673,108.500 102.179,109.347 101.854 C 109.684 101.725,109.960 101.344,109.960 101.009 C 109.960 100.673,110.217 100.398,110.531 100.398 C 110.845 100.398,111.998 99.526,113.092 98.460 C 114.187 97.394,115.364 96.413,115.709 96.281 C 116.053 96.149,116.335 95.781,116.335 95.464 C 116.335 95.147,116.873 94.649,117.530 94.358 C 118.187 94.067,118.725 93.694,118.725 93.528 C 118.725 93.363,118.949 93.222,119.223 93.216 C 119.497 93.210,120.521 92.492,121.500 91.622 C 122.478 90.752,123.509 90.040,123.790 90.040 C 124.072 90.040,124.303 89.841,124.303 89.599 C 124.303 89.356,124.592 89.269,124.945 89.404 C 125.404 89.580,125.521 89.479,125.356 89.048 C 125.198 88.637,125.373 88.446,125.909 88.446 C 126.428 88.446,126.693 88.176,126.693 87.649 C 126.693 87.141,126.959 86.853,127.427 86.853 C 127.831 86.853,128.952 86.407,129.917 85.863 C 130.883 85.319,132.102 84.687,132.625 84.458 C 133.149 84.229,134.104 83.598,134.747 83.057 C 135.391 82.515,136.171 82.072,136.481 82.072 C 136.791 82.072,137.269 81.713,137.543 81.275 C 137.828 80.818,138.472 80.478,139.052 80.478 C 139.608 80.478,140.322 80.120,140.637 79.681 C 140.970 79.220,141.669 78.884,142.296 78.884 C 142.892 78.884,143.490 78.705,143.625 78.486 C 143.761 78.267,144.399 78.088,145.043 78.088 C 145.688 78.088,146.574 77.729,147.012 77.291 C 147.450 76.853,148.069 76.494,148.388 76.494 C 149.217 76.494,151.066 75.621,151.968 74.804 C 152.453 74.364,153.377 74.104,154.454 74.104 C 155.737 74.104,156.294 73.903,156.666 73.307 C 157.018 72.743,157.595 72.510,158.639 72.510 C 159.450 72.510,160.707 72.178,161.431 71.772 C 162.156 71.366,163.457 70.999,164.323 70.957 C 165.189 70.915,166.086 70.731,166.315 70.548 C 166.545 70.366,168.169 70.137,169.925 70.040 C 171.842 69.934,173.513 69.616,174.108 69.244 C 175.214 68.552,180.732 67.890,188.645 67.501 C 194.033 67.235,195.463 66.933,193.426 66.490 C 192.769 66.347,195.369 66.230,199.203 66.230 C 203.038 66.230,205.637 66.347,204.980 66.490 C 202.989 66.923,204.336 67.233,209.363 67.498 C 216.619 67.882,222.011 68.545,223.014 69.178 C 223.510 69.491,225.392 69.855,227.197 69.988 C 229.002 70.120,230.680 70.386,230.926 70.579 C 231.172 70.773,232.290 70.995,233.410 71.073 C 234.531 71.152,235.892 71.507,236.435 71.863 C 237.008 72.238,238.244 72.510,239.382 72.510 C 241.006 72.510,241.377 72.646,241.550 73.307 C 241.720 73.958,242.093 74.104,243.588 74.104 C 244.600 74.104,245.418 74.291,245.418 74.521 C 245.418 75.097,248.561 76.475,249.900 76.485 C 250.567 76.491,250.996 76.711,250.996 77.049 C 250.996 78.325,254.384 78.472,255.922 77.262 C 256.500 76.808,256.972 76.106,256.972 75.701 C 256.972 74.630,258.467 71.315,258.950 71.315 C 259.177 71.315,259.369 70.911,259.377 70.418 C 259.384 69.925,259.647 69.074,259.960 68.526 C 260.273 67.978,260.536 67.126,260.544 66.633 C 260.551 66.140,260.916 65.378,261.355 64.940 C 261.793 64.502,262.151 63.695,262.151 63.147 C 262.151 62.575,262.358 62.194,262.637 62.251 C 262.907 62.306,263.305 61.638,263.533 60.749 C 263.759 59.869,264.357 58.452,264.863 57.602 C 265.368 56.751,265.881 55.556,266.003 54.946 C 266.125 54.335,266.474 53.740,266.778 53.624 C 267.082 53.507,267.337 53.002,267.345 52.503 C 267.353 52.003,267.615 51.145,267.928 50.598 C 268.241 50.050,268.504 49.109,268.512 48.506 C 268.520 47.842,268.744 47.410,269.081 47.410 C 269.721 47.410,270.120 46.563,270.120 45.199 C 270.120 44.525,270.291 44.314,270.706 44.473 C 271.143 44.641,271.360 44.279,271.555 43.058 C 271.700 42.155,271.974 41.320,272.164 41.203 C 272.354 41.085,272.510 40.641,272.510 40.216 C 272.510 39.790,272.760 39.442,273.065 39.442 C 273.755 39.442,274.104 38.577,274.104 36.863 C 274.104 36.111,274.339 35.453,274.651 35.333 C 274.952 35.218,275.319 34.482,275.466 33.697 C 275.613 32.913,275.904 32.271,276.114 32.271 C 276.323 32.271,276.494 31.664,276.494 30.923 C 276.494 29.910,276.692 29.523,277.291 29.367 C 277.903 29.207,278.088 28.823,278.088 27.714 C 278.088 26.808,278.307 26.186,278.675 26.044 C 279.467 25.741,280.478 23.638,280.478 22.296 C 280.478 21.544,280.724 21.144,281.275 21.000 C 281.919 20.832,282.072 20.457,282.072 19.041 C 282.072 18.079,282.268 17.095,282.507 16.856 C 283.164 16.199,282.233 14.741,281.158 14.741 C 280.670 14.741,280.047 14.382,279.774 13.944 C 279.432 13.397,278.845 13.147,277.899 13.147 C 277.053 13.147,275.794 12.686,274.637 11.952 C 273.600 11.295,272.309 10.757,271.766 10.757 C 271.224 10.757,270.457 10.465,270.062 10.107 C 269.667 9.750,268.589 9.394,267.665 9.315 C 266.742 9.237,265.804 8.992,265.583 8.770 C 265.361 8.548,264.451 8.367,263.562 8.367 C 262.376 8.367,261.812 8.154,261.447 7.570 C 261.041 6.920,260.518 6.773,258.609 6.773 C 256.603 6.773,256.238 6.659,256.060 5.976 C 255.883 5.299,255.516 5.179,253.623 5.179 C 252.397 5.179,251.394 5.000,251.394 4.781 C 251.394 4.562,251.019 4.382,250.561 4.382 C 250.102 4.382,249.271 4.024,248.714 3.586 C 247.915 2.957,247.098 2.789,244.847 2.789 C 243.277 2.789,241.815 2.611,241.598 2.394 C 241.381 2.178,239.955 1.929,238.430 1.842 C 235.560 1.679,234.623 1.466,233.267 0.668 C 232.400 0.158,175.027 -0.123,168.526 0.351 M395.219 250.398 C 395.219 250.727,395.040 250.996,394.821 250.996 C 394.602 250.996,394.422 250.727,394.422 250.398 C 394.422 250.070,394.602 249.801,394.821 249.801 C 395.040 249.801,395.219 250.070,395.219 250.398 M388.656 271.332 C 389.030 271.936,388.018 273.038,387.534 272.554 C 387.087 272.107,387.435 270.916,388.012 270.916 C 388.225 270.916,388.515 271.103,388.656 271.332 " stroke="none" fill="#048ccc" fill-rule="evenodd"></path><path id="path1" d="M381.517 198.240 C 381.384 198.586,381.275 198.945,381.275 199.037 C 381.275 199.304,397.385 199.228,398.755 198.954 C 399.440 198.817,400.000 198.459,400.000 198.157 C 400.000 197.275,381.856 197.356,381.517 198.240 M398.274 225.764 C 397.736 226.301,397.986 231.757,398.570 232.241 C 399.368 232.903,399.488 232.488,399.575 228.785 C 399.650 225.601,399.284 224.753,398.274 225.764 M396.574 234.875 C 396.303 235.957,396.582 240.540,396.942 240.899 C 397.735 241.693,398.810 236.177,398.181 234.538 C 397.795 233.531,396.863 233.726,396.574 234.875 M395.717 241.700 C 394.913 242.022,395.038 247.764,395.857 248.079 C 396.816 248.447,397.073 247.680,397.041 244.548 C 397.013 241.798,396.771 241.278,395.717 241.700 M394.422 250.398 C 394.422 250.727,394.602 250.996,394.821 250.996 C 395.040 250.996,395.219 250.727,395.219 250.398 C 395.219 250.070,395.040 249.801,394.821 249.801 C 394.602 249.801,394.422 250.070,394.422 250.398 M391.709 256.121 C 390.797 256.698,391.248 260.359,392.231 260.359 C 392.930 260.359,393.028 260.093,393.028 258.201 C 393.028 256.040,392.686 255.501,391.709 256.121 M390.211 262.322 C 389.905 263.540,390.357 265.033,390.970 264.832 C 391.723 264.584,391.812 261.355,391.066 261.355 C 390.729 261.355,390.344 261.790,390.211 262.322 M388.661 266.465 C 388.338 267.936,389.028 269.779,389.792 269.485 C 390.521 269.206,390.926 267.628,390.602 266.335 C 390.250 264.933,388.978 265.018,388.661 266.465 M387.385 271.541 C 387.031 272.463,387.814 273.073,388.418 272.345 C 388.928 271.730,388.697 270.916,388.012 270.916 C 387.799 270.916,387.517 271.197,387.385 271.541 M383.516 279.097 C 383.379 279.454,383.267 280.071,383.267 280.468 C 383.267 280.865,382.998 281.293,382.669 281.419 C 382.018 281.669,381.870 283.527,382.432 284.414 C 382.980 285.279,383.665 284.544,383.665 283.091 C 383.665 282.087,383.865 281.714,384.490 281.551 C 385.151 281.378,385.289 281.073,385.187 280.013 C 385.049 278.577,383.948 277.973,383.516 279.097 M380.876 286.853 C 380.876 288.175,381.303 288.361,382.226 287.439 C 382.982 286.682,382.640 285.657,381.631 285.657 C 381.058 285.657,380.876 285.945,380.876 286.853 " stroke="none" fill="#088ccc" fill-rule="evenodd"></path><path id="path2" d="M381.517 198.240 C 381.384 198.586,381.275 198.945,381.275 199.037 C 381.275 199.304,397.385 199.228,398.755 198.954 C 399.440 198.817,400.000 198.459,400.000 198.157 C 400.000 197.275,381.856 197.356,381.517 198.240 M398.274 225.764 C 397.736 226.301,397.986 231.757,398.570 232.241 C 399.368 232.903,399.488 232.488,399.575 228.785 C 399.650 225.601,399.284 224.753,398.274 225.764 M396.574 234.875 C 396.303 235.957,396.582 240.540,396.942 240.899 C 397.735 241.693,398.810 236.177,398.181 234.538 C 397.795 233.531,396.863 233.726,396.574 234.875 M395.717 241.700 C 394.913 242.022,395.038 247.764,395.857 248.079 C 396.816 248.447,397.073 247.680,397.041 244.548 C 397.013 241.798,396.771 241.278,395.717 241.700 M394.422 250.398 C 394.422 250.727,394.602 250.996,394.821 250.996 C 395.040 250.996,395.219 250.727,395.219 250.398 C 395.219 250.070,395.040 249.801,394.821 249.801 C 394.602 249.801,394.422 250.070,394.422 250.398 M391.709 256.121 C 390.797 256.698,391.248 260.359,392.231 260.359 C 392.930 260.359,393.028 260.093,393.028 258.201 C 393.028 256.040,392.686 255.501,391.709 256.121 M390.211 262.322 C 389.905 263.540,390.357 265.033,390.970 264.832 C 391.723 264.584,391.812 261.355,391.066 261.355 C 390.729 261.355,390.344 261.790,390.211 262.322 M388.661 266.465 C 388.338 267.936,389.028 269.779,389.792 269.485 C 390.521 269.206,390.926 267.628,390.602 266.335 C 390.250 264.933,388.978 265.018,388.661 266.465 M387.385 271.541 C 387.031 272.463,387.814 273.073,388.418 272.345 C 388.928 271.730,388.697 270.916,388.012 270.916 C 387.799 270.916,387.517 271.197,387.385 271.541 M383.516 279.097 C 383.379 279.454,383.267 280.071,383.267 280.468 C 383.267 280.865,382.998 281.293,382.669 281.419 C 382.018 281.669,381.870 283.527,382.432 284.414 C 382.980 285.279,383.665 284.544,383.665 283.091 C 383.665 282.087,383.865 281.714,384.490 281.551 C 385.151 281.378,385.289 281.073,385.187 280.013 C 385.049 278.577,383.948 277.973,383.516 279.097 M380.876 286.853 C 380.876 288.175,381.303 288.361,382.226 287.439 C 382.982 286.682,382.640 285.657,381.631 285.657 C 381.058 285.657,380.876 285.945,380.876 286.853 " stroke="none" fill="#088ccc" fill-rule="evenodd"></path><path id="path3" d="M381.517 198.240 C 381.384 198.586,381.275 198.945,381.275 199.037 C 381.275 199.304,397.385 199.228,398.755 198.954 C 399.440 198.817,400.000 198.459,400.000 198.157 C 400.000 197.275,381.856 197.356,381.517 198.240 M398.274 225.764 C 397.736 226.301,397.986 231.757,398.570 232.241 C 399.368 232.903,399.488 232.488,399.575 228.785 C 399.650 225.601,399.284 224.753,398.274 225.764 M396.574 234.875 C 396.303 235.957,396.582 240.540,396.942 240.899 C 397.735 241.693,398.810 236.177,398.181 234.538 C 397.795 233.531,396.863 233.726,396.574 234.875 M395.717 241.700 C 394.913 242.022,395.038 247.764,395.857 248.079 C 396.816 248.447,397.073 247.680,397.041 244.548 C 397.013 241.798,396.771 241.278,395.717 241.700 M394.422 250.398 C 394.422 250.727,394.602 250.996,394.821 250.996 C 395.040 250.996,395.219 250.727,395.219 250.398 C 395.219 250.070,395.040 249.801,394.821 249.801 C 394.602 249.801,394.422 250.070,394.422 250.398 M391.709 256.121 C 390.797 256.698,391.248 260.359,392.231 260.359 C 392.930 260.359,393.028 260.093,393.028 258.201 C 393.028 256.040,392.686 255.501,391.709 256.121 M390.211 262.322 C 389.905 263.540,390.357 265.033,390.970 264.832 C 391.723 264.584,391.812 261.355,391.066 261.355 C 390.729 261.355,390.344 261.790,390.211 262.322 M388.661 266.465 C 388.338 267.936,389.028 269.779,389.792 269.485 C 390.521 269.206,390.926 267.628,390.602 266.335 C 390.250 264.933,388.978 265.018,388.661 266.465 M387.385 271.541 C 387.031 272.463,387.814 273.073,388.418 272.345 C 388.928 271.730,388.697 270.916,388.012 270.916 C 387.799 270.916,387.517 271.197,387.385 271.541 M383.516 279.097 C 383.379 279.454,383.267 280.071,383.267 280.468 C 383.267 280.865,382.998 281.293,382.669 281.419 C 382.018 281.669,381.870 283.527,382.432 284.414 C 382.980 285.279,383.665 284.544,383.665 283.091 C 383.665 282.087,383.865 281.714,384.490 281.551 C 385.151 281.378,385.289 281.073,385.187 280.013 C 385.049 278.577,383.948 277.973,383.516 279.097 M380.876 286.853 C 380.876 288.175,381.303 288.361,382.226 287.439 C 382.982 286.682,382.640 285.657,381.631 285.657 C 381.058 285.657,380.876 285.945,380.876 286.853 " stroke="none" fill="#088ccc" fill-rule="evenodd"></path><path id="path4" d="M381.517 198.240 C 381.384 198.586,381.275 198.945,381.275 199.037 C 381.275 199.304,397.385 199.228,398.755 198.954 C 399.440 198.817,400.000 198.459,400.000 198.157 C 400.000 197.275,381.856 197.356,381.517 198.240 M398.274 225.764 C 397.736 226.301,397.986 231.757,398.570 232.241 C 399.368 232.903,399.488 232.488,399.575 228.785 C 399.650 225.601,399.284 224.753,398.274 225.764 M396.574 234.875 C 396.303 235.957,396.582 240.540,396.942 240.899 C 397.735 241.693,398.810 236.177,398.181 234.538 C 397.795 233.531,396.863 233.726,396.574 234.875 M395.717 241.700 C 394.913 242.022,395.038 247.764,395.857 248.079 C 396.816 248.447,397.073 247.680,397.041 244.548 C 397.013 241.798,396.771 241.278,395.717 241.700 M394.422 250.398 C 394.422 250.727,394.602 250.996,394.821 250.996 C 395.040 250.996,395.219 250.727,395.219 250.398 C 395.219 250.070,395.040 249.801,394.821 249.801 C 394.602 249.801,394.422 250.070,394.422 250.398 M391.709 256.121 C 390.797 256.698,391.248 260.359,392.231 260.359 C 392.930 260.359,393.028 260.093,393.028 258.201 C 393.028 256.040,392.686 255.501,391.709 256.121 M390.211 262.322 C 389.905 263.540,390.357 265.033,390.970 264.832 C 391.723 264.584,391.812 261.355,391.066 261.355 C 390.729 261.355,390.344 261.790,390.211 262.322 M388.661 266.465 C 388.338 267.936,389.028 269.779,389.792 269.485 C 390.521 269.206,390.926 267.628,390.602 266.335 C 390.250 264.933,388.978 265.018,388.661 266.465 M387.385 271.541 C 387.031 272.463,387.814 273.073,388.418 272.345 C 388.928 271.730,388.697 270.916,388.012 270.916 C 387.799 270.916,387.517 271.197,387.385 271.541 M383.516 279.097 C 383.379 279.454,383.267 280.071,383.267 280.468 C 383.267 280.865,382.998 281.293,382.669 281.419 C 382.018 281.669,381.870 283.527,382.432 284.414 C 382.980 285.279,383.665 284.544,383.665 283.091 C 383.665 282.087,383.865 281.714,384.490 281.551 C 385.151 281.378,385.289 281.073,385.187 280.013 C 385.049 278.577,383.948 277.973,383.516 279.097 M380.876 286.853 C 380.876 288.175,381.303 288.361,382.226 287.439 C 382.982 286.682,382.640 285.657,381.631 285.657 C 381.058 285.657,380.876 285.945,380.876 286.853 " stroke="none" fill="#088ccc" fill-rule="evenodd"></path></g></svg>