<?xml version="1.0" encoding="utf-8"?>
<!-- Generator: Adobe Illustrator 21.1.0, SVG Export Plug-In . SVG Version: 6.00 Build 0)  -->
<svg version="1.1" id="Calque_1" xmlns="http://www.w3.org/2000/svg" xmlns:xlink="http://www.w3.org/1999/xlink" x="0px" y="0px"
	 viewBox="0 0 141.7 141.7" style="enable-background:new 0 0 141.7 141.7;" xml:space="preserve">
<style type="text/css">
	.st0{fill:#0491D0;}
</style>
<path class="st0" d="M69.5,137.3c-25.3-1.1-44.4-12.5-57.3-34.3C8,95.9,5.7,88,4.8,79.8c-1.3-11.3-0.2-22.3,3.8-33
	c6.4-17,23.2-35.1,45.3-40.5c7.5-1.8,15-2.4,22.7-1.8C83.4,5.2,90,6.8,96.4,9.3c0.3,0.1,0.6,0.2,0.9,0.3c0.4,0.2,0.5,0.5,0.3,0.9
	c-0.3,0.6-0.5,1.1-0.8,1.7c-2.4,5.4-4.9,10.9-7.3,16.3c-0.5,1.1-0.5,1.1-1.7,0.7c-6.9-2.8-14.1-3.8-21.5-3.2
	C55.7,27,46.6,31.4,39,39c-6.3,6.4-10.7,13.9-12.3,22.8c-3.4,19.1,2.7,34.6,18.4,46.1c6.8,5,14.6,7.5,23,8c8.9,0.5,17.4-1,25.1-5.7
	c12-7.3,19.5-17.7,21.9-31.7c0.3-2,0.4-4,0.6-6c0.1-1.4,0.1-1.2,1.4-1.2c6.3,0,12.7,0,19,0c1.4,0,1.4,0,1.4,1.5
	c-0.5,18.8-7.7,34.5-21.5,47.3c-8.5,7.8-18.2,13.1-29.5,15.7C81.5,136.8,75.1,137.4,69.5,137.3z"/>
</svg>

