<?xml version="1.0" standalone="no"?>
<!DOCTYPE svg PUBLIC "-//W3C//DTD SVG 20010904//EN"
 "http://www.w3.org/TR/2001/REC-SVG-20010904/DTD/svg10.dtd">
<svg version="1.0" xmlns="http://www.w3.org/2000/svg"
 width="500.000000pt" height="498.000000pt" viewBox="0 0 500.000000 498.000000"
 preserveAspectRatio="xMidYMid meet">
<metadata>
Created by potrace 1.15, written by Peter Selinger 2001-2017
</metadata>
<g transform="translate(0.000000,498.000000) scale(0.100000,-0.100000)"
fill="#000000" stroke="none">
<path d="M2100 4969 c-30 -5 -66 -10 -80 -12 -14 -3 -52 -8 -84 -12 -33 -5
-71 -14 -85 -22 -15 -7 -39 -13 -54 -13 -16 0 -26 -4 -22 -10 4 -6 -8 -10 -29
-10 -20 0 -36 -4 -36 -9 0 -5 -21 -12 -46 -16 -47 -7 -54 -9 -111 -39 -17 -9
-39 -16 -48 -16 -9 0 -13 -4 -10 -10 4 -6 -5 -10 -19 -10 -14 0 -26 -4 -26 -9
0 -5 -15 -13 -32 -16 -18 -4 -48 -17 -68 -29 -19 -12 -48 -28 -65 -36 -16 -8
-32 -17 -35 -20 -3 -3 -38 -26 -77 -50 -40 -25 -73 -48 -73 -52 0 -5 -6 -8
-12 -8 -7 0 -27 -13 -44 -28 -18 -15 -42 -34 -54 -42 -12 -8 -30 -22 -40 -30
-10 -8 -32 -26 -49 -40 -17 -14 -55 -48 -85 -77 -29 -29 -56 -49 -60 -46 -3 4
-6 0 -6 -9 0 -8 -11 -21 -25 -28 -14 -7 -25 -17 -25 -21 0 -4 -14 -22 -30 -40
-40 -45 -47 -52 -62 -65 -7 -6 -24 -25 -38 -43 -14 -18 -37 -47 -53 -64 -44
-51 -47 -56 -47 -65 0 -5 -9 -17 -20 -27 -12 -11 -31 -36 -42 -57 -12 -21 -25
-38 -30 -38 -4 0 -8 -5 -8 -11 0 -6 -6 -17 -13 -24 -26 -30 -37 -44 -37 -50 0
-13 -36 -85 -42 -85 -5 0 -8 -7 -8 -15 0 -8 -4 -15 -10 -15 -5 0 -12 -11 -16
-25 -3 -14 -10 -25 -14 -25 -5 0 -11 -18 -15 -40 -4 -22 -11 -40 -16 -40 -5 0
-9 -9 -9 -20 0 -11 -4 -20 -10 -20 -5 0 -10 -9 -10 -19 0 -11 -7 -26 -15 -35
-8 -8 -15 -26 -15 -40 0 -14 -4 -26 -9 -26 -5 0 -12 -22 -16 -50 -4 -27 -11
-50 -16 -50 -5 0 -9 -13 -9 -29 0 -16 -5 -31 -11 -33 -6 -2 -13 -25 -16 -51
-3 -26 -9 -47 -13 -47 -4 0 -10 -24 -13 -52 -3 -29 -13 -98 -21 -153 -22 -142
-22 -687 0 -835 9 -58 18 -123 20 -145 3 -22 9 -49 14 -60 5 -11 11 -37 15
-58 3 -20 10 -37 15 -37 6 0 10 -13 10 -30 0 -16 4 -30 9 -30 5 0 13 -25 16
-55 4 -30 11 -52 16 -49 5 3 9 -7 9 -21 0 -15 7 -33 15 -41 8 -9 15 -24 15
-35 0 -10 5 -19 10 -19 6 0 10 -9 10 -20 0 -11 4 -20 9 -20 5 0 12 -17 16 -37
4 -21 10 -40 13 -43 10 -8 32 -43 38 -62 4 -10 10 -18 15 -18 5 0 9 -7 9 -15
0 -8 4 -15 9 -15 5 0 12 -12 15 -26 6 -24 13 -35 43 -69 7 -7 13 -18 13 -24 0
-6 4 -11 9 -11 5 0 11 -8 15 -17 8 -27 29 -55 53 -76 13 -10 23 -25 23 -33 0
-8 5 -14 10 -14 6 0 10 -4 10 -10 0 -5 12 -22 27 -39 16 -16 39 -44 53 -62 42
-56 320 -326 320 -312 0 4 8 -4 19 -15 10 -12 21 -22 25 -22 8 0 31 -18 54
-43 9 -9 22 -17 29 -17 7 0 18 -9 25 -20 7 -11 16 -20 20 -20 5 0 27 -14 50
-30 22 -16 47 -30 55 -30 7 0 13 -4 13 -9 0 -5 26 -21 58 -37 31 -16 58 -32
60 -36 2 -5 9 -8 15 -8 7 0 28 -10 47 -22 19 -12 37 -23 40 -23 6 -2 36 -14
73 -29 15 -6 27 -14 27 -18 0 -5 11 -8 24 -8 14 0 27 -4 31 -9 3 -5 19 -12 35
-16 17 -4 30 -11 30 -17 0 -6 9 -8 20 -5 11 3 23 1 26 -4 3 -5 18 -9 35 -9 16
0 29 -4 29 -10 0 -5 17 -10 38 -10 27 0 33 -3 22 -10 -11 -7 -4 -10 25 -10 22
0 49 -6 60 -14 11 -7 49 -16 85 -20 36 -3 76 -9 90 -12 138 -31 773 -32 895
-1 11 3 55 8 97 12 46 4 82 13 89 21 6 8 29 14 50 14 22 0 39 5 39 10 0 6 11
10 24 10 14 0 27 4 30 9 3 5 27 12 53 16 26 4 56 13 67 21 11 8 28 14 38 14
10 0 18 5 18 10 0 6 11 10 25 10 14 0 25 5 25 10 0 6 9 10 19 10 11 0 22 4 25
9 3 5 18 12 33 16 16 3 37 15 48 25 11 10 31 21 45 25 14 4 27 10 30 14 3 3
21 14 40 23 42 21 69 38 88 55 7 7 20 13 28 13 8 0 14 5 14 10 0 6 6 10 14 10
8 0 16 3 18 8 4 9 85 72 93 72 7 0 24 14 60 48 13 12 27 22 30 22 4 0 29 22
56 50 27 27 49 47 49 44 0 -3 11 7 25 22 14 15 25 24 25 21 0 -4 20 15 45 41
25 26 45 50 45 55 0 4 5 5 10 2 6 -3 10 0 10 8 0 7 12 25 27 40 16 14 39 39
53 57 14 17 36 44 50 59 14 16 32 39 40 52 8 12 25 33 37 46 12 12 24 32 28
43 3 11 11 20 16 20 5 0 9 7 9 15 0 8 5 15 10 15 6 0 10 7 10 15 0 8 5 15 11
15 5 0 8 4 4 9 -3 5 3 16 12 23 20 15 53 73 53 93 0 7 3 15 8 17 13 6 42 65
42 87 0 12 5 21 10 21 6 0 10 11 10 25 0 14 5 25 11 25 6 0 8 7 5 16 -4 10 0
18 13 21 13 3 20 17 24 46 3 23 11 43 16 45 6 2 11 19 11 38 0 19 4 34 9 34 5
0 13 25 17 56 5 42 11 58 24 61 15 4 20 20 25 89 4 46 11 87 16 90 5 3 9 24 9
48 0 23 4 46 9 52 14 14 22 100 27 277 l5 157 -121 0 c-74 0 -120 4 -120 10 0
7 -101 9 -297 8 l-298 -3 -10 -127 c-5 -69 -13 -130 -17 -134 -5 -4 -8 -34 -8
-66 0 -33 -4 -57 -9 -54 -4 3 -11 -27 -15 -67 -4 -40 -11 -73 -16 -75 -6 -2
-10 -15 -10 -28 0 -13 -4 -24 -9 -24 -5 0 -13 -14 -16 -32 -4 -18 -11 -39 -15
-48 -22 -44 -40 -92 -40 -105 0 -8 -4 -15 -8 -15 -5 0 -17 -18 -28 -40 -10
-22 -22 -40 -26 -40 -5 0 -8 -8 -8 -18 0 -9 -10 -28 -23 -42 -13 -14 -32 -40
-42 -57 -11 -18 -23 -33 -27 -33 -4 0 -8 -7 -8 -15 0 -8 -23 -37 -50 -65 -27
-28 -50 -53 -50 -55 0 -6 -94 -98 -152 -150 -50 -45 -105 -85 -117 -85 -6 0
-11 -5 -11 -12 0 -6 -3 -9 -6 -6 -3 3 -17 -5 -31 -18 -14 -13 -30 -24 -34 -24
-5 0 -40 -20 -77 -44 -38 -24 -83 -47 -100 -51 -18 -3 -32 -11 -32 -16 0 -5
-11 -9 -24 -9 -14 0 -27 -4 -31 -9 -3 -5 -19 -12 -35 -16 -17 -4 -30 -11 -30
-16 0 -5 -12 -9 -26 -9 -14 0 -34 -5 -44 -10 -11 -6 -46 -13 -80 -17 -33 -3
-60 -9 -60 -13 0 -4 -54 -11 -120 -15 -66 -4 -117 -11 -114 -16 3 -5 -42 -9
-103 -9 -64 0 -102 4 -94 9 8 5 -33 11 -105 16 -66 4 -123 10 -129 15 -5 4
-32 10 -60 13 -70 9 -83 12 -91 20 -4 4 -20 7 -36 7 -15 0 -28 4 -28 9 0 5
-10 12 -22 16 -25 7 -62 22 -90 36 -10 5 -23 9 -29 9 -16 0 -82 32 -97 47 -7
7 -20 13 -28 13 -8 0 -14 5 -14 10 0 6 -7 10 -15 10 -8 0 -15 5 -15 10 0 6 -9
10 -20 10 -11 0 -23 6 -26 14 -3 7 -21 22 -40 32 -19 10 -34 22 -34 26 0 5 -7
8 -15 8 -8 0 -15 4 -15 8 0 4 -12 15 -28 24 -15 9 -63 50 -107 92 -44 42 -83
76 -87 76 -5 0 -8 4 -8 10 0 5 -21 32 -47 58 -27 27 -55 59 -63 72 -8 12 -21
28 -27 36 -7 7 -13 17 -13 23 0 6 -4 11 -8 11 -5 0 -17 17 -28 37 -18 36 -23
43 -51 77 -7 8 -13 22 -13 31 0 8 -3 15 -7 15 -5 0 -16 21 -26 48 -10 26 -25
59 -33 74 -8 14 -14 33 -14 42 0 9 -4 16 -10 16 -5 0 -10 11 -10 25 0 14 -4
25 -9 25 -6 0 -13 31 -17 70 -3 38 -10 67 -15 64 -5 -3 -9 17 -9 43 0 27 -6
55 -13 61 -9 10 -13 83 -15 278 -3 224 -1 269 12 296 9 17 16 51 16 75 0 23 4
43 9 43 4 0 12 32 15 70 4 39 11 70 17 70 5 0 9 11 9 25 0 14 5 25 10 25 6 0
10 7 10 16 0 9 6 28 14 42 8 15 23 48 33 74 10 27 21 48 26 48 4 0 7 9 7 20 0
11 4 20 8 20 5 0 20 24 34 53 15 28 36 63 48 77 12 14 30 35 41 48 10 12 19
27 19 32 0 5 23 32 50 60 28 28 50 53 50 57 0 5 72 76 152 148 51 47 134 105
142 100 3 -3 4 -2 1 1 -6 9 18 30 45 39 22 7 96 51 110 65 13 13 51 29 84 35
20 4 36 11 36 16 0 5 8 9 18 9 9 0 26 7 36 15 11 8 30 15 43 15 13 0 23 4 23
9 0 5 12 11 28 14 15 3 38 8 52 12 14 3 50 10 80 15 30 5 80 14 110 19 30 5
89 10 130 11 52 1 69 4 55 10 -13 6 13 9 75 9 54 0 87 -4 75 -8 -11 -5 25 -10
94 -14 63 -4 119 -11 125 -16 6 -5 34 -11 61 -14 28 -3 61 -8 75 -11 14 -4 42
-9 63 -12 20 -4 37 -10 37 -15 0 -5 9 -9 21 -9 11 0 27 -7 35 -15 9 -8 26 -15
40 -15 13 0 24 -5 24 -11 0 -6 14 -9 32 -7 28 3 33 8 41 41 5 20 13 37 18 37
5 0 9 8 9 18 0 9 7 30 15 46 8 15 15 35 15 43 0 8 5 11 10 8 6 -3 10 2 10 12
0 11 7 28 15 39 8 10 15 27 15 37 0 9 4 17 9 17 5 0 12 18 16 40 4 22 11 40
16 40 5 0 9 9 9 21 0 11 4 18 9 15 5 -3 12 10 15 29 4 19 11 35 16 35 6 0 10
11 10 25 0 14 4 25 9 25 5 0 12 16 15 35 4 19 11 35 16 35 6 0 10 8 10 18 0 9
7 26 15 36 8 11 15 28 15 37 0 10 4 19 8 21 5 2 12 18 15 36 5 24 3 32 -8 32
-8 0 -15 5 -15 10 0 6 -9 10 -21 10 -11 0 -35 7 -52 16 -57 30 -64 32 -111 39
-25 4 -46 11 -46 16 0 5 -16 9 -35 9 -19 0 -35 5 -35 10 0 6 -12 10 -28 10
-15 0 -36 6 -47 14 -11 7 -47 16 -80 20 -33 4 -71 10 -85 12 -104 19 -185 22
-475 22 -181 -1 -355 -4 -385 -9z"/>
</g>
</svg>
