<?xml version="1.0" encoding="utf-8"?>
<!-- Generator: Adobe Illustrator 21.1.0, SVG Export Plug-In . SVG Version: 6.00 Build 0)  -->
<svg version="1.1" id="Calque_1" xmlns="http://www.w3.org/2000/svg" xmlns:xlink="http://www.w3.org/1999/xlink" x="0px" y="0px"
	 viewBox="0 0 100 125" style="enable-background:new 0 0 100 125;" xml:space="preserve">
<path d="M39.7,33.3c0,5.7,4.6,10.3,10.3,10.3S60.3,39,60.3,33.3S55.7,23,50,23S39.7,27.6,39.7,33.3z M58.3,33.3
	c0,4.6-3.7,8.3-8.3,8.3s-8.3-3.7-8.3-8.3c0-4.6,3.7-8.3,8.3-8.3S58.3,28.7,58.3,33.3z"/>
<path d="M18.5,31.9c0,4.9,4,8.9,8.9,8.9s8.9-4,8.9-8.9c0-4.9-4-8.9-8.9-8.9S18.5,27,18.5,31.9z M34.3,31.9c0,3.8-3.1,6.9-6.9,6.9
	s-6.9-3.1-6.9-6.9s3.1-6.9,6.9-6.9S34.3,28.1,34.3,31.9z"/>
<path d="M72.6,40.8c4.9,0,8.9-4,8.9-8.9c0-4.9-4-8.9-8.9-8.9s-8.9,4-8.9,8.9C63.7,36.8,67.7,40.8,72.6,40.8z M72.6,25
	c3.8,0,6.9,3.1,6.9,6.9s-3.1,6.9-6.9,6.9s-6.9-3.1-6.9-6.9S68.8,25,72.6,25z"/>
<path d="M80.2,43.6H64.9c-3,0-5.8,1.3-7.6,3.7H42.7c-1.9-2.3-4.7-3.7-7.6-3.7H19.8c-5.4,0-9.8,4.4-9.8,9.8v13.9c0,3,2.2,5.5,5.1,6
	v16.9c0,0.6,0.4,1,1,1h19.5V102c0,0.6,0.4,1,1,1h26.8c0.6,0,1-0.4,1-1V91.2h19.5c0.6,0,1-0.4,1-1V73.3c2.9-0.5,5.1-3,5.1-6V53.4
	C90,48,85.6,43.6,80.2,43.6z M17.1,89.2V72.4c0-0.6-0.4-1-1-1c-2.3,0-4.1-1.8-4.1-4.1V53.4c0-4.3,3.5-7.8,7.8-7.8h15.3
	c1.8,0,3.5,0.6,4.9,1.7c-5.8,0.5-10.3,5.4-10.3,11.3V75c0,3.5,2.6,6.4,6,6.9v7.2H17.1z M62.4,81v20H37.6V81c0-0.6-0.4-1-1-1
	c-2.8,0-5-2.2-5-5V58.6c0-5.2,4.2-9.4,9.4-9.4h18c5.2,0,9.4,4.2,9.4,9.4V75c0,2.8-2.2,5-5,5C62.8,80,62.4,80.4,62.4,81z M88,67.3
	c0,2.3-1.8,4.1-4.1,4.1c-0.6,0-1,0.4-1,1v16.8H64.4v-7.2c3.4-0.5,6-3.4,6-6.9V58.6c0-5.9-4.6-10.8-10.3-11.3
	c1.4-1.1,3.1-1.7,4.9-1.7h15.3c4.3,0,7.8,3.5,7.8,7.8V67.3z"/>
<path d="M56.4,68.6l5-5.3c0.2-0.2,0.2-0.4,0.1-0.7c-0.1-0.2-0.3-0.4-0.5-0.4l-7.2-0.8l-3.5-6.4c-0.1-0.2-0.3-0.3-0.6-0.3
	c-0.2,0-0.5,0.2-0.6,0.4l-3,6.7L39,63.1c-0.2,0-0.4,0.2-0.5,0.5c-0.1,0.2,0,0.5,0.2,0.6l5.4,4.9l-1,7.2c0,0.2,0.1,0.5,0.3,0.6
	c0.2,0.1,0.5,0.1,0.7,0l6.3-3.6l6.6,3.1c0.2,0.1,0.4,0.1,0.6,0c0,0,0,0,0.1,0c0.2-0.2,0.3-0.4,0.2-0.6L56.4,68.6z M56.3,74.7
	L50.6,72c-0.2-0.1-0.4-0.1-0.6,0l-5.5,3.2l0.8-6.3c0-0.2,0-0.4-0.2-0.6l-4.7-4.2l6.2-1.1c0.2,0,0.4-0.2,0.5-0.4l2.6-5.8l3,5.6
	c0.1,0.2,0.3,0.3,0.5,0.3l6.3,0.7L55.2,68C55,68.1,55,68.3,55,68.5L56.3,74.7z"/>
</svg>
