<?xml version="1.0" encoding="utf-8"?>
<!-- Generator: Adobe Illustrator 21.1.0, SVG Export Plug-In . SVG Version: 6.00 Build 0)  -->
<svg version="1.1" id="Calque_1" xmlns="http://www.w3.org/2000/svg" xmlns:xlink="http://www.w3.org/1999/xlink" x="0px" y="0px"
	 viewBox="0 0 100 125" style="enable-background:new 0 0 100 125;" xml:space="preserve">
<path d="M75.6,24.4c-7.2,0-13,5.8-13,13s5.8,13,13,13s13-5.8,13-13S82.8,24.4,75.6,24.4z M69,46.2c0.1-2.8,2-5.2,4.7-6
	c0.4-0.1,0.7-0.5,0.7-0.9c0-0.4-0.2-0.8-0.5-1c-1.3-0.7-2.1-2-2.1-3.5c0-2.2,1.8-3.9,3.9-3.9s3.9,1.8,3.9,3.9c0,1.5-0.8,2.8-2.2,3.5
	c-0.4,0.2-0.6,0.6-0.5,1c0,0.4,0.3,0.7,0.7,0.9c2.6,0.9,4.4,3.2,4.5,6c-1.8,1.4-4.1,2.2-6.6,2.2C73.1,48.4,70.9,47.6,69,46.2z
	 M84,44.6c-0.5-2.3-2-4.3-4-5.5c1.1-1.1,1.7-2.6,1.7-4.2c0-3.3-2.7-5.9-5.9-5.9c-3.3,0-5.9,2.7-5.9,5.9c0,1.5,0.6,3,1.6,4.1
	c-2.1,1.2-3.7,3.2-4.2,5.6c-1.7-1.9-2.7-4.4-2.7-7.2c0-6.1,4.9-11,11-11s11,4.9,11,11C86.6,40.1,85.6,42.6,84,44.6z"/>
<path d="M24.4,50.4c7.2,0,13-5.8,13-13s-5.8-13-13-13s-13,5.8-13,13S17.2,50.4,24.4,50.4z M17.8,46.2c0.1-2.8,2-5.2,4.7-6
	c0.4-0.1,0.7-0.5,0.7-0.9c0-0.4-0.2-0.8-0.5-1c-1.3-0.7-2.1-2-2.1-3.5c0-2.2,1.8-3.9,3.9-3.9s3.9,1.8,3.9,3.9c0,1.5-0.8,2.8-2.2,3.5
	c-0.4,0.2-0.6,0.6-0.5,1c0,0.4,0.3,0.7,0.7,0.9c2.6,0.9,4.4,3.2,4.5,6c-1.8,1.4-4.1,2.2-6.6,2.2C21.9,48.4,19.7,47.6,17.8,46.2z
	 M24.4,26.4c6.1,0,11,4.9,11,11c0,2.7-1,5.2-2.7,7.2c-0.5-2.3-2-4.3-4-5.5c1.1-1.1,1.7-2.6,1.7-4.2c0-3.3-2.7-5.9-5.9-5.9
	c-3.3,0-5.9,2.7-5.9,5.9c0,1.5,0.6,3,1.6,4.1c-2.1,1.2-3.7,3.2-4.2,5.6c-1.7-1.9-2.7-4.4-2.7-7.2C13.4,31.3,18.3,26.4,24.4,26.4z"/>
<path d="M75.6,75.7c-7.2,0-13,5.8-13,13s5.8,13,13,13s13-5.8,13-13S82.8,75.7,75.6,75.7z M69,97.5c0.1-2.8,2-5.2,4.7-6
	c0.4-0.1,0.7-0.5,0.7-0.9c0-0.4-0.2-0.8-0.5-1c-1.3-0.7-2.1-2-2.1-3.5c0-2.2,1.8-3.9,3.9-3.9s3.9,1.8,3.9,3.9c0,1.5-0.8,2.8-2.2,3.5
	c-0.4,0.2-0.6,0.6-0.5,1c0,0.4,0.3,0.7,0.7,0.9c2.6,0.9,4.4,3.2,4.5,6c-1.8,1.4-4.1,2.2-6.6,2.2C73.1,99.7,70.9,98.9,69,97.5z
	 M84,95.9c-0.5-2.3-2-4.3-4-5.5c1.1-1.1,1.7-2.6,1.7-4.2c0-3.3-2.7-5.9-5.9-5.9c-3.3,0-5.9,2.7-5.9,5.9c0,1.5,0.6,3,1.6,4.1
	c-2.1,1.2-3.7,3.2-4.2,5.6c-1.7-1.9-2.7-4.4-2.7-7.2c0-6.1,4.9-11,11-11s11,4.9,11,11C86.6,91.5,85.6,94,84,95.9z"/>
<path d="M24.4,75.7c-7.2,0-13,5.8-13,13s5.8,13,13,13s13-5.8,13-13S31.6,75.7,24.4,75.7z M17.8,97.5c0.1-2.8,2-5.2,4.7-6
	c0.4-0.1,0.7-0.5,0.7-0.9c0-0.4-0.2-0.8-0.5-1c-1.3-0.7-2.1-2-2.1-3.5c0-2.2,1.8-3.9,3.9-3.9s3.9,1.8,3.9,3.9c0,1.5-0.8,2.8-2.2,3.5
	c-0.4,0.2-0.6,0.6-0.5,1c0,0.4,0.3,0.7,0.7,0.9c2.6,0.9,4.4,3.2,4.5,6c-1.8,1.4-4.1,2.2-6.6,2.2C21.9,99.7,19.7,98.9,17.8,97.5z
	 M32.8,95.9c-0.5-2.3-2-4.3-4-5.5c1.1-1.1,1.7-2.6,1.7-4.2c0-3.3-2.7-5.9-5.9-5.9c-3.3,0-5.9,2.7-5.9,5.9c0,1.5,0.6,3,1.6,4.1
	c-2.1,1.2-3.7,3.2-4.2,5.6c-1.7-1.9-2.7-4.4-2.7-7.2c0-6.1,4.9-11,11-11s11,4.9,11,11C35.4,91.5,34.4,94,32.8,95.9z"/>
<path d="M38.7,27.6C42.3,25.9,46,25,50,25s7.7,0.9,11.3,2.6c0.1,0.1,0.3,0.1,0.4,0.1c0.4,0,0.7-0.2,0.9-0.6c0.2-0.5,0-1.1-0.5-1.3
	C58.4,24,54.3,23,50,23s-8.4,1-12.2,2.8c-0.5,0.2-0.7,0.8-0.5,1.3C37.6,27.7,38.2,27.9,38.7,27.6z"/>
<path d="M13.7,75.7c0.1,0,0.3,0,0.4-0.1c0.5-0.2,0.7-0.8,0.5-1.3C12.9,70.7,12,67,12,63s0.9-7.7,2.6-11.3c0.2-0.5,0-1.1-0.5-1.3
	c-0.5-0.2-1.1,0-1.3,0.5C11,54.6,10,58.7,10,63s1,8.4,2.8,12.2C13,75.5,13.4,75.7,13.7,75.7z"/>
<path d="M62.6,98.8c-0.2-0.5-0.8-0.7-1.3-0.5C57.7,100.1,54,101,50,101s-7.7-0.9-11.3-2.6c-0.5-0.2-1.1,0-1.3,0.5
	c-0.2,0.5,0,1.1,0.5,1.3c3.8,1.9,7.9,2.8,12.2,2.8s8.4-1,12.2-2.8C62.7,99.9,62.9,99.3,62.6,98.8z"/>
<path d="M85.8,50.4c-0.5,0.2-0.7,0.8-0.5,1.3C87.1,55.3,88,59,88,63s-0.9,7.7-2.6,11.3c-0.2,0.5,0,1.1,0.5,1.3
	c0.1,0.1,0.3,0.1,0.4,0.1c0.4,0,0.7-0.2,0.9-0.6C89,71.4,90,67.3,90,63s-1-8.4-2.8-12.2C86.9,50.3,86.3,50.1,85.8,50.4z"/>
</svg>
